G04*
G04 #@! TF.GenerationSoftware,Altium Limited,Altium Designer,19.0.15 (446)*
G04*
G04 Layer_Physical_Order=2*
G04 Layer_Color=16711680*
%FSLAX44Y44*%
%MOMM*%
G71*
G01*
G75*
%ADD10C,1.2700*%
%ADD11C,1.0160*%
%ADD12C,0.5080*%
%ADD13O,1.5240X3.0480*%
%ADD14O,1.5240X2.5400*%
%ADD15O,2.0320X1.5240*%
%ADD16O,3.0480X1.5240*%
%ADD17O,2.5400X1.5240*%
%ADD18O,3.0480X1.5240*%
%ADD19O,1.5240X3.0480*%
%ADD20O,3.8100X2.0320*%
%ADD21O,2.0320X3.0480*%
%ADD22O,2.5400X1.5240*%
%ADD23O,1.5240X2.0320*%
%ADD24C,5.0800*%
D10*
X817880Y591820D02*
Y638810D01*
X792480Y591820D02*
Y638810D01*
X767080Y591820D02*
Y638810D01*
X741680Y591820D02*
Y638810D01*
X655320Y821690D02*
Y966470D01*
X1181281Y910590D02*
X1188720Y903150D01*
X1174612Y910590D02*
X1181281D01*
X1166547Y918654D02*
X1174612Y910590D01*
X1158240Y918654D02*
X1166547D01*
X1188720Y857250D02*
Y903150D01*
X1172210Y840740D02*
X1188720Y857250D01*
X1164409Y840740D02*
X1172210D01*
X1156970Y833300D02*
X1164409Y840740D01*
X1156970Y815243D02*
Y833300D01*
X1155797Y814070D02*
X1156970Y815243D01*
X1155700Y814070D02*
X1155797D01*
X1097280Y883920D02*
X1097502Y884142D01*
X1158018D01*
X1158240Y884364D01*
X1154746Y918654D02*
X1158240D01*
X1153573Y919828D02*
X1154746Y918654D01*
X1153573Y919828D02*
Y945324D01*
X1143000Y955897D02*
X1153573Y945324D01*
X1143000Y955897D02*
Y993140D01*
X1117600Y958850D02*
X1118086Y958364D01*
Y943811D02*
Y958364D01*
Y943811D02*
X1127760Y934137D01*
Y933450D02*
Y934137D01*
X1099237Y814070D02*
X1127760Y842593D01*
X1090930Y814070D02*
X1099237D01*
X825806Y872490D02*
X983745D01*
X818366Y865051D02*
X825806Y872490D01*
X983745D02*
X986304Y875049D01*
X632439Y1061699D02*
X655320Y1084580D01*
X556451Y1025525D02*
Y1042840D01*
X556260Y1025333D02*
X556451Y1025525D01*
Y1042840D02*
X575310Y1061699D01*
X481330Y938570D02*
X556260D01*
X965200Y939800D02*
Y984833D01*
X843280Y842010D02*
X916940D01*
Y891540D02*
X965200Y939800D01*
X679213Y1034017D02*
X712360D01*
X662940Y1050290D02*
X679213Y1034017D01*
X754367Y1079876D02*
X762674D01*
X750695Y1083547D02*
X754367Y1079876D01*
X712360Y1083547D02*
X750695D01*
X712360Y1034017D02*
X715052D01*
X716225Y1032844D01*
Y1001933D02*
Y1032844D01*
Y1001933D02*
X717398Y1000760D01*
X720090D01*
X696574Y1115604D02*
X704738Y1107440D01*
X677643Y1134535D02*
X696574Y1115604D01*
X755741Y1003676D02*
X762674D01*
X948689Y819149D02*
Y844647D01*
X927100Y797560D02*
X948689Y819149D01*
X927100Y730250D02*
Y797560D01*
X948689Y844647D02*
X949862Y845820D01*
X951716D01*
X927100Y730250D02*
X944394Y712956D01*
X843280Y765810D02*
Y778510D01*
Y765810D02*
X928370Y680720D01*
X1055370D01*
X1090930Y716280D01*
Y788670D01*
X635288Y1103918D02*
Y1142641D01*
X607348Y1075978D02*
X635288Y1103918D01*
X607348Y1028520D02*
Y1075978D01*
Y1028520D02*
X614788Y1021080D01*
X627380D01*
X653862Y994598D01*
Y967928D02*
Y994598D01*
Y967928D02*
X655320Y966470D01*
X965200Y1035848D02*
X970169Y1030879D01*
X983257D01*
X965200Y1035848D02*
Y1070138D01*
X983257Y1030879D02*
X990697Y1023439D01*
Y993237D02*
Y1023439D01*
X990600Y993140D02*
X990697Y993237D01*
X944394Y712956D02*
X972334D01*
X972820Y712470D01*
X951716Y845820D02*
X976450D01*
X986304Y875049D02*
X990697D01*
X991870Y876222D01*
Y880615D01*
X818366Y842496D02*
Y865051D01*
X817880Y842010D02*
X818366Y842496D01*
X990600Y935990D02*
Y974090D01*
X951716Y889000D02*
X990600Y935990D01*
X1089840Y845820D02*
X1097280Y853260D01*
Y883920D01*
X1066800Y845820D02*
X1089840D01*
X655320Y821690D02*
X688340D01*
X654050D02*
X655320D01*
X759641Y777240D02*
X767080Y784679D01*
Y842010D01*
X745718Y777240D02*
X759641D01*
X715238Y746760D02*
X745718Y777240D01*
X688340Y746760D02*
X715238D01*
X1066800Y880615D02*
Y993140D01*
X1097280Y918210D02*
Y944880D01*
X1117600Y958850D02*
Y993140D01*
X1097280Y944880D02*
X1106170Y953770D01*
X1117600Y993140D02*
X1118086Y992654D01*
X1106170Y953770D02*
X1112520D01*
X1097280Y918210D02*
X1104900D01*
X1112520Y953770D02*
X1117600Y958850D01*
X662940Y1050290D02*
X670560D01*
X660688Y1135708D02*
Y1142641D01*
Y1085753D02*
Y1135708D01*
Y1085753D02*
X661861Y1084580D01*
X662940D01*
X762407Y1080142D02*
X762674Y1079876D01*
X712846Y1083061D02*
X713112Y1082795D01*
X661858Y973008D02*
X667126Y978276D01*
X762674D01*
X481330Y877570D02*
X544830Y814070D01*
X481330Y877570D02*
Y938570D01*
X544830Y759460D02*
Y814070D01*
X811202Y991967D02*
X812376Y993140D01*
X812800D01*
X762674Y1054476D02*
X763160Y1053990D01*
X837714Y993626D02*
X838200Y993140D01*
X826770Y762000D02*
X843280Y778510D01*
Y842010D01*
X795020Y762000D02*
X826770D01*
X753110Y720090D02*
X795020Y762000D01*
X654050Y720090D02*
X753110D01*
X1016000Y845821D02*
Y993140D01*
X972819Y802640D02*
X1016000Y845821D01*
X963930Y1146123D02*
Y1154430D01*
Y1146123D02*
X965200Y1144853D01*
Y1070138D02*
Y1144853D01*
X762188Y1004162D02*
X762674Y1003676D01*
X1022350Y712470D02*
X1022836Y711984D01*
X972820Y712470D02*
X1022350D01*
X1022349Y802640D02*
X1029282D01*
X1041400Y814758D01*
Y993140D01*
X661861Y1134535D02*
X677643D01*
X660688Y1135708D02*
X661861Y1134535D01*
X704738Y1107440D02*
X775963D01*
X783402Y1114880D01*
Y1143738D01*
X783888Y1144224D01*
X965200Y993140D02*
X965686Y993626D01*
X544830Y759460D02*
X584200Y720090D01*
X654050D01*
X502920Y1052830D02*
Y1094740D01*
X501650Y1096010D02*
Y1136891D01*
X528320Y1052830D02*
Y1112161D01*
X558800Y1142641D01*
X609888D01*
X635288Y1168400D02*
Y1176931D01*
Y1142641D02*
Y1168400D01*
X452300Y1158420D02*
X459740Y1165860D01*
X452300Y1138065D02*
Y1158420D01*
X451127Y1136891D02*
X452300Y1138065D01*
X450850Y1136891D02*
X451127D01*
X459740Y1165860D02*
X476250D01*
X509270Y1198880D01*
X613339D01*
X635288Y1176931D01*
X558800Y966470D02*
X604520D01*
X528320Y996950D02*
X558800Y966470D01*
X528320Y996950D02*
Y1052830D01*
X762674Y1054476D02*
X763160Y1054962D01*
X990600Y984833D02*
Y993140D01*
X989330Y983563D02*
X990600Y984833D01*
X965200D02*
Y993140D01*
X963930Y983563D02*
X965200Y984833D01*
X972819Y802640D02*
X972820Y802639D01*
Y762001D02*
Y802639D01*
Y762001D02*
X972820Y762000D01*
X1022349Y802640D02*
X1022349Y802639D01*
Y762001D02*
Y802639D01*
Y762001D02*
X1022350Y762000D01*
X1142913Y993053D02*
X1143000Y993140D01*
X834688Y1106170D02*
Y1144224D01*
Y1106170D02*
X837714Y1103144D01*
Y1070623D02*
Y1103144D01*
Y1070623D02*
X838200Y1070138D01*
X809288Y1144224D02*
X809774Y1143738D01*
Y1071311D02*
Y1143738D01*
Y1071311D02*
X810947Y1070138D01*
X812800D01*
X697230Y1196340D02*
X739140D01*
X663228D02*
X697230D01*
Y1178812D02*
Y1196340D01*
Y1178812D02*
X731818Y1144224D01*
X758488D01*
X808802Y1143738D02*
X809288Y1144224D01*
X816221Y1070138D02*
X817394Y1071311D01*
X812800Y1070138D02*
X816221D01*
X887550Y1190171D02*
X923290Y1154430D01*
X745310Y1190171D02*
X887550D01*
X739140Y1196340D02*
X745310Y1190171D01*
X923290Y1154430D02*
X963930D01*
X1083310Y1151890D02*
Y1151987D01*
X1082137Y1153160D02*
X1083310Y1151987D01*
X999393Y1153160D02*
X1082137D01*
X998220Y1154333D02*
X999393Y1153160D01*
X998220Y1154333D02*
Y1154430D01*
X1108710Y1119886D02*
Y1151890D01*
Y1119886D02*
X1117600Y1110996D01*
Y1070138D02*
Y1110996D01*
X450850Y1019850D02*
Y1136891D01*
Y1019850D02*
X481330Y989370D01*
X635288Y1168400D02*
X663228Y1196340D01*
X1090930Y788670D02*
X1155700D01*
D11*
X939800Y941070D02*
Y993140D01*
X905510Y906780D02*
X939800Y941070D01*
X824230Y906780D02*
X905510D01*
X792480Y875030D02*
X824230Y906780D01*
X914400Y941641D02*
Y993140D01*
X894779Y922020D02*
X914400Y941641D01*
X797560Y922020D02*
X894779D01*
X742950Y867410D02*
X797560Y922020D01*
X688230Y1107260D02*
X696574Y1115604D01*
X688230Y1072376D02*
Y1107260D01*
Y1072376D02*
X702019Y1058587D01*
X728601D01*
X736607Y1050581D01*
Y1022810D02*
Y1050581D01*
Y1022810D02*
X755741Y1003676D01*
X742950Y803910D02*
Y867410D01*
X814070Y966470D02*
Y991967D01*
X806630Y959031D02*
X814070Y966470D01*
X765394Y959031D02*
X806630D01*
X751063Y944699D02*
X765394Y959031D01*
X720090Y944699D02*
X751063D01*
X782430Y1053990D02*
X789940Y1046480D01*
X763160Y1053990D02*
X782430D01*
X789940Y1046480D02*
X830580D01*
X858520Y1032510D02*
X863600Y1027430D01*
Y993140D02*
Y1027430D01*
X844550Y1032510D02*
X858520D01*
X830580Y1046480D02*
X844550Y1032510D01*
X762674Y1029076D02*
X824340D01*
X837714Y1015702D01*
Y993626D02*
Y1015702D01*
X888514Y952014D02*
Y992654D01*
X875538Y939038D02*
X888514Y952014D01*
X777748Y939038D02*
X875538D01*
X720090Y881380D02*
X777748Y939038D01*
X720090Y812800D02*
Y881380D01*
X709930Y770890D02*
X742950Y803910D01*
X703580Y796290D02*
X720090Y812800D01*
X654050Y796290D02*
X703580D01*
X654050Y770890D02*
X709930D01*
X792480Y842010D02*
Y875030D01*
D12*
X1105752Y632030D02*
X1109984Y636262D01*
X1118448D01*
X1122680Y632030D01*
Y627798D01*
X1118448Y623566D01*
X1109984D01*
X1105752Y619334D01*
Y615102D01*
X1109984Y610870D01*
X1118448D01*
X1122680Y615102D01*
X1080360Y632030D02*
X1084592Y636262D01*
X1093056D01*
X1097288Y632030D01*
Y615102D01*
X1093056Y610870D01*
X1084592D01*
X1080360Y615102D01*
X1071896Y636262D02*
X1054969D01*
X1063432D01*
Y610870D01*
X1046505D02*
X1029577Y627798D01*
X1021113Y610870D02*
X1012649D01*
X1016881D01*
Y636262D01*
X1021113Y632030D01*
X999953Y615102D02*
X995721Y610870D01*
X987257D01*
X983025Y615102D01*
Y632030D01*
X987257Y636262D01*
X995721D01*
X999953Y632030D01*
Y627798D01*
X995721Y623566D01*
X983025D01*
X974561Y610870D02*
X957633Y627798D01*
X936473Y610870D02*
Y636262D01*
X949169Y623566D01*
X932242D01*
X923778Y636262D02*
X906850D01*
Y632030D01*
X923778Y615102D01*
Y610870D01*
D13*
X1127760Y842593D02*
D03*
Y933450D02*
D03*
X575310Y1061699D02*
D03*
X556260Y1025333D02*
D03*
Y938570D02*
D03*
X660688Y1142641D02*
D03*
X635288D02*
D03*
X609888D02*
D03*
X528320Y1052830D02*
D03*
X502920D02*
D03*
X741680Y591820D02*
D03*
X767080D02*
D03*
X792480D02*
D03*
X817880D02*
D03*
X834688Y1144224D02*
D03*
X809288D02*
D03*
X783888D02*
D03*
X758488D02*
D03*
X1083310Y1151890D02*
D03*
X1108710D02*
D03*
X963930Y1154430D02*
D03*
X998220D02*
D03*
D14*
X1117600Y958850D02*
D03*
X632439Y1061699D02*
D03*
X916940Y842010D02*
D03*
X1066800Y845820D02*
D03*
X991870Y880615D02*
D03*
X1066800D02*
D03*
D15*
X916940Y891540D02*
D03*
D16*
X951716Y845820D02*
D03*
X976450D02*
D03*
X720090Y944699D02*
D03*
Y1000760D02*
D03*
X501650Y1136891D02*
D03*
X450850D02*
D03*
X1022349Y802640D02*
D03*
X972819D02*
D03*
X435610Y720090D02*
D03*
Y745490D02*
D03*
Y770890D02*
D03*
Y796290D02*
D03*
Y821690D02*
D03*
Y847090D02*
D03*
X654050Y821690D02*
D03*
Y796290D02*
D03*
Y770890D02*
D03*
Y745490D02*
D03*
Y720090D02*
D03*
D17*
X951716Y889000D02*
D03*
X688340Y746760D02*
D03*
Y821690D02*
D03*
D18*
X762674Y978276D02*
D03*
Y1003676D02*
D03*
Y1029076D02*
D03*
Y1054476D02*
D03*
Y1079876D02*
D03*
X1090930Y788670D02*
D03*
Y814070D02*
D03*
X662940Y1050290D02*
D03*
Y1084580D02*
D03*
X972820Y712470D02*
D03*
Y762000D02*
D03*
X1022350Y712470D02*
D03*
Y762000D02*
D03*
X1097280Y883920D02*
D03*
Y918210D02*
D03*
X1158240Y918654D02*
D03*
Y884364D02*
D03*
X1155700Y788670D02*
D03*
Y814070D02*
D03*
X712360Y1083547D02*
D03*
Y1034017D02*
D03*
D19*
X741680Y638810D02*
D03*
X767080D02*
D03*
X792480D02*
D03*
X817880D02*
D03*
X843280D02*
D03*
X868680D02*
D03*
X767080Y842010D02*
D03*
X792480D02*
D03*
X817880D02*
D03*
X843280D02*
D03*
X863600Y1070138D02*
D03*
X889000D02*
D03*
X914400D02*
D03*
X965200D02*
D03*
X990600D02*
D03*
X1016000D02*
D03*
X1041400D02*
D03*
X1066800D02*
D03*
X1092200D02*
D03*
X1117600D02*
D03*
X1143000D02*
D03*
Y993140D02*
D03*
X1117600D02*
D03*
X1092200D02*
D03*
X1066800D02*
D03*
X1041400D02*
D03*
X1016000D02*
D03*
X990600D02*
D03*
X965200D02*
D03*
X939800D02*
D03*
X914400D02*
D03*
X889000D02*
D03*
X863600D02*
D03*
X838200D02*
D03*
D20*
X481330Y989370D02*
D03*
Y938570D02*
D03*
D21*
X655320Y966470D02*
D03*
X604520D02*
D03*
D22*
X812800Y1070138D02*
D03*
Y993140D02*
D03*
D23*
X838200Y1070138D02*
D03*
X939800D02*
D03*
D24*
X430530Y1201420D02*
D03*
Y593090D02*
D03*
X1178560D02*
D03*
Y1201420D02*
D03*
M02*
