G04*
G04 #@! TF.GenerationSoftware,Altium Limited,Altium Designer,19.0.15 (446)*
G04*
G04 Layer_Color=255*
%FSLAX44Y44*%
%MOMM*%
G71*
G01*
G75*
%ADD13O,1.5240X3.0480*%
%ADD14O,1.5240X2.5400*%
%ADD15O,2.0320X1.5240*%
%ADD16O,3.0480X1.5240*%
%ADD17O,2.5400X1.5240*%
%ADD18O,3.0480X1.5240*%
%ADD19O,1.5240X3.0480*%
%ADD20O,3.8100X2.0320*%
%ADD21O,2.0320X3.0480*%
%ADD22O,2.5400X1.5240*%
%ADD23O,1.5240X2.0320*%
D13*
X1127760Y842593D02*
D03*
Y933450D02*
D03*
X575310Y1061699D02*
D03*
X556260Y1025333D02*
D03*
Y938570D02*
D03*
X660688Y1142641D02*
D03*
X635288D02*
D03*
X609888D02*
D03*
X528320Y1052830D02*
D03*
X502920D02*
D03*
X741680Y591820D02*
D03*
X767080D02*
D03*
X792480D02*
D03*
X817880D02*
D03*
X834688Y1144224D02*
D03*
X809288D02*
D03*
X783888D02*
D03*
X758488D02*
D03*
X1083310Y1151890D02*
D03*
X1108710D02*
D03*
X963930Y1154430D02*
D03*
X998220D02*
D03*
D14*
X1117600Y958850D02*
D03*
X632439Y1061699D02*
D03*
X916940Y842010D02*
D03*
X1066800Y845820D02*
D03*
X991870Y880615D02*
D03*
X1066800D02*
D03*
D15*
X916940Y891540D02*
D03*
D16*
X951716Y845820D02*
D03*
X976450D02*
D03*
X720090Y944699D02*
D03*
Y1000760D02*
D03*
X501650Y1136891D02*
D03*
X450850D02*
D03*
X1022349Y802640D02*
D03*
X972819D02*
D03*
X435610Y720090D02*
D03*
Y745490D02*
D03*
Y770890D02*
D03*
Y796290D02*
D03*
Y821690D02*
D03*
Y847090D02*
D03*
X654050Y821690D02*
D03*
Y796290D02*
D03*
Y770890D02*
D03*
Y745490D02*
D03*
Y720090D02*
D03*
D17*
X951716Y889000D02*
D03*
X688340Y746760D02*
D03*
Y821690D02*
D03*
D18*
X762674Y978276D02*
D03*
Y1003676D02*
D03*
Y1029076D02*
D03*
Y1054476D02*
D03*
Y1079876D02*
D03*
X1090930Y788670D02*
D03*
Y814070D02*
D03*
X662940Y1050290D02*
D03*
Y1084580D02*
D03*
X972820Y712470D02*
D03*
Y762000D02*
D03*
X1022350Y712470D02*
D03*
Y762000D02*
D03*
X1097280Y883920D02*
D03*
Y918210D02*
D03*
X1158240Y918654D02*
D03*
Y884364D02*
D03*
X1155700Y788670D02*
D03*
Y814070D02*
D03*
X712360Y1083547D02*
D03*
Y1034017D02*
D03*
D19*
X741680Y638810D02*
D03*
X767080D02*
D03*
X792480D02*
D03*
X817880D02*
D03*
X843280D02*
D03*
X868680D02*
D03*
X767080Y842010D02*
D03*
X792480D02*
D03*
X817880D02*
D03*
X843280D02*
D03*
X863600Y1070138D02*
D03*
X889000D02*
D03*
X914400D02*
D03*
X965200D02*
D03*
X990600D02*
D03*
X1016000D02*
D03*
X1041400D02*
D03*
X1066800D02*
D03*
X1092200D02*
D03*
X1117600D02*
D03*
X1143000D02*
D03*
Y993140D02*
D03*
X1117600D02*
D03*
X1092200D02*
D03*
X1066800D02*
D03*
X1041400D02*
D03*
X1016000D02*
D03*
X990600D02*
D03*
X965200D02*
D03*
X939800D02*
D03*
X914400D02*
D03*
X889000D02*
D03*
X863600D02*
D03*
X838200D02*
D03*
D20*
X481330Y989370D02*
D03*
Y938570D02*
D03*
D21*
X655320Y966470D02*
D03*
X604520D02*
D03*
D22*
X812800Y1070138D02*
D03*
Y993140D02*
D03*
D23*
X838200Y1070138D02*
D03*
X939800D02*
D03*
M02*
