G04*
G04 #@! TF.GenerationSoftware,Altium Limited,Altium Designer,19.0.15 (446)*
G04*
G04 Layer_Color=128*
%FSLAX44Y44*%
%MOMM*%
G71*
G01*
G75*
%ADD37C,0.0508*%
D37*
X1123950Y842593D02*
X1131570D01*
X1127760Y838783D02*
Y846403D01*
X1123950Y933450D02*
X1131570D01*
X1127760Y929640D02*
Y937260D01*
X1113790Y958850D02*
X1121410D01*
X1117600Y955040D02*
Y962660D01*
X628629Y1061699D02*
X636249D01*
X632439Y1057889D02*
Y1065509D01*
X571500Y1061699D02*
X579120D01*
X575310Y1057889D02*
Y1065509D01*
X552450Y1025333D02*
X560070D01*
X556260Y1021523D02*
Y1029143D01*
X552450Y938570D02*
X560070D01*
X556260Y934760D02*
Y942380D01*
X913130Y842010D02*
X920750D01*
X916940Y838200D02*
Y845820D01*
X913130Y891540D02*
X920750D01*
X916940Y887730D02*
Y895350D01*
X947906Y845820D02*
X955526D01*
X951716Y842010D02*
Y849630D01*
X947906Y889000D02*
X955526D01*
X951716Y885190D02*
Y892810D01*
X972639Y845820D02*
X980259D01*
X976450Y842010D02*
Y849630D01*
X1062990Y845820D02*
X1070610D01*
X1066800Y842010D02*
Y849630D01*
X684530Y746760D02*
X692150D01*
X688340Y742950D02*
Y750570D01*
X684530Y821690D02*
X692150D01*
X688340Y817880D02*
Y825500D01*
X988060Y880615D02*
X995680D01*
X991870Y876805D02*
Y884425D01*
X1062990Y880615D02*
X1070610D01*
X1066800Y876805D02*
Y884425D01*
X716280Y944699D02*
X723900D01*
X720090Y940890D02*
Y948510D01*
X716280Y1000760D02*
X723900D01*
X720090Y996950D02*
Y1004570D01*
X758864Y978276D02*
X766484D01*
X762674Y974466D02*
Y982086D01*
X758864Y1003676D02*
X766484D01*
X762674Y999866D02*
Y1007486D01*
X758864Y1029076D02*
X766484D01*
X762674Y1025266D02*
Y1032886D01*
X758864Y1054476D02*
X766484D01*
X762674Y1050666D02*
Y1058286D01*
X758864Y1079876D02*
X766484D01*
X762674Y1076066D02*
Y1083686D01*
X497840Y1136891D02*
X505460D01*
X501650Y1133081D02*
Y1140701D01*
X447040Y1136891D02*
X454660D01*
X450850Y1133081D02*
Y1140701D01*
X737870Y638810D02*
X745490D01*
X741680Y635000D02*
Y642620D01*
X763270Y638810D02*
X770890D01*
X767080Y635000D02*
Y642620D01*
X788670Y638810D02*
X796290D01*
X792480Y635000D02*
Y642620D01*
X814070Y638810D02*
X821690D01*
X817880Y635000D02*
Y642620D01*
X839470Y638810D02*
X847090D01*
X843280Y635000D02*
Y642620D01*
X864870Y638810D02*
X872490D01*
X868680Y635000D02*
Y642620D01*
X763270Y842010D02*
X770890D01*
X767080Y838200D02*
Y845820D01*
X788670Y842010D02*
X796290D01*
X792480Y838200D02*
Y845820D01*
X814070Y842010D02*
X821690D01*
X817880Y838200D02*
Y845820D01*
X839470Y842010D02*
X847090D01*
X843280Y838200D02*
Y845820D01*
X1087120Y788670D02*
X1094740D01*
X1090930Y784860D02*
Y792480D01*
X1087120Y814070D02*
X1094740D01*
X1090930Y810260D02*
Y817880D01*
X1018539Y802640D02*
X1026159D01*
X1022349Y798830D02*
Y806450D01*
X969009Y802640D02*
X976629D01*
X972819Y798830D02*
Y806450D01*
X656878Y1142641D02*
X664498D01*
X660688Y1138831D02*
Y1146451D01*
X631478Y1142641D02*
X639098D01*
X635288Y1138831D02*
Y1146451D01*
X606078Y1142641D02*
X613698D01*
X609888Y1138831D02*
Y1146451D01*
X524510Y1052830D02*
X532130D01*
X528320Y1049020D02*
Y1056640D01*
X499110Y1052830D02*
X506730D01*
X502920Y1049020D02*
Y1056640D01*
X737870Y591820D02*
X745490D01*
X741680Y588010D02*
Y595630D01*
X763270Y591820D02*
X770890D01*
X767080Y588010D02*
Y595630D01*
X788670Y591820D02*
X796290D01*
X792480Y588010D02*
Y595630D01*
X814070Y591820D02*
X821690D01*
X817880Y588010D02*
Y595630D01*
X477520Y989370D02*
X485140D01*
X481330Y985560D02*
Y993180D01*
X477520Y938570D02*
X485140D01*
X481330Y934760D02*
Y942380D01*
X651510Y966470D02*
X659130D01*
X655320Y962660D02*
Y970280D01*
X600710Y966470D02*
X608330D01*
X604520Y962660D02*
Y970280D01*
X431800Y720090D02*
X439420D01*
X435610Y716280D02*
Y723900D01*
X431800Y745490D02*
X439420D01*
X435610Y741680D02*
Y749300D01*
X431800Y770890D02*
X439420D01*
X435610Y767080D02*
Y774700D01*
X431800Y796290D02*
X439420D01*
X435610Y792480D02*
Y800100D01*
X431800Y821690D02*
X439420D01*
X435610Y817880D02*
Y825500D01*
X431800Y847090D02*
X439420D01*
X435610Y843280D02*
Y850900D01*
X650240Y821690D02*
X657860D01*
X654050Y817880D02*
Y825500D01*
X650240Y796290D02*
X657860D01*
X654050Y792480D02*
Y800100D01*
X650240Y770890D02*
X657860D01*
X654050Y767080D02*
Y774700D01*
X650240Y745490D02*
X657860D01*
X654050Y741680D02*
Y749300D01*
X650240Y720090D02*
X657860D01*
X654050Y716280D02*
Y723900D01*
X830878Y1144224D02*
X838498D01*
X834688Y1140414D02*
Y1148034D01*
X805478Y1144224D02*
X813098D01*
X809288Y1140414D02*
Y1148034D01*
X780078Y1144224D02*
X787698D01*
X783888Y1140414D02*
Y1148034D01*
X754678Y1144224D02*
X762298D01*
X758488Y1140414D02*
Y1148034D01*
X659130Y1050290D02*
X666750D01*
X662940Y1046480D02*
Y1054100D01*
X659130Y1084580D02*
X666750D01*
X662940Y1080770D02*
Y1088390D01*
X808990Y1070138D02*
X816610D01*
X812800Y1066328D02*
Y1073948D01*
X834390Y1070138D02*
X842010D01*
X838200Y1066328D02*
Y1073948D01*
X859790Y1070138D02*
X867410D01*
X863600Y1066328D02*
Y1073948D01*
X885190Y1070138D02*
X892810D01*
X889000Y1066328D02*
Y1073948D01*
X910590Y1070138D02*
X918210D01*
X914400Y1066328D02*
Y1073948D01*
X935990Y1070138D02*
X943610D01*
X939800Y1066328D02*
Y1073948D01*
X961390Y1070138D02*
X969010D01*
X965200Y1066328D02*
Y1073948D01*
X986790Y1070138D02*
X994410D01*
X990600Y1066328D02*
Y1073948D01*
X1012190Y1070138D02*
X1019810D01*
X1016000Y1066328D02*
Y1073948D01*
X1037590Y1070138D02*
X1045210D01*
X1041400Y1066328D02*
Y1073948D01*
X1062990Y1070138D02*
X1070610D01*
X1066800Y1066328D02*
Y1073948D01*
X1088390Y1070138D02*
X1096010D01*
X1092200Y1066328D02*
Y1073948D01*
X1113790Y1070138D02*
X1121410D01*
X1117600Y1066328D02*
Y1073948D01*
X1139190Y1070138D02*
X1146810D01*
X1143000Y1066328D02*
Y1073948D01*
X1139190Y993140D02*
X1146810D01*
X1143000Y989330D02*
Y996950D01*
X1113790Y993140D02*
X1121410D01*
X1117600Y989330D02*
Y996950D01*
X1088390Y993140D02*
X1096010D01*
X1092200Y989330D02*
Y996950D01*
X1062990Y993140D02*
X1070610D01*
X1066800Y989330D02*
Y996950D01*
X1037590Y993140D02*
X1045210D01*
X1041400Y989330D02*
Y996950D01*
X1012190Y993140D02*
X1019810D01*
X1016000Y989330D02*
Y996950D01*
X986790Y993140D02*
X994410D01*
X990600Y989330D02*
Y996950D01*
X961390Y993140D02*
X969010D01*
X965200Y989330D02*
Y996950D01*
X935990Y993140D02*
X943610D01*
X939800Y989330D02*
Y996950D01*
X910590Y993140D02*
X918210D01*
X914400Y989330D02*
Y996950D01*
X885190Y993140D02*
X892810D01*
X889000Y989330D02*
Y996950D01*
X859790Y993140D02*
X867410D01*
X863600Y989330D02*
Y996950D01*
X834390Y993140D02*
X842010D01*
X838200Y989330D02*
Y996950D01*
X808990Y993140D02*
X816610D01*
X812800Y989330D02*
Y996950D01*
X969010Y712470D02*
X976630D01*
X972820Y708660D02*
Y716280D01*
X969010Y762000D02*
X976630D01*
X972820Y758190D02*
Y765810D01*
X1079500Y1151890D02*
X1087120D01*
X1083310Y1148080D02*
Y1155700D01*
X1104900Y1151890D02*
X1112520D01*
X1108710Y1148080D02*
Y1155700D01*
X1018540Y712470D02*
X1026160D01*
X1022350Y708660D02*
Y716280D01*
X1018540Y762000D02*
X1026160D01*
X1022350Y758190D02*
Y765810D01*
X960120Y1154430D02*
X967740D01*
X963930Y1150620D02*
Y1158240D01*
X994410Y1154430D02*
X1002030D01*
X998220Y1150620D02*
Y1158240D01*
X1093470Y883920D02*
X1101090D01*
X1097280Y880110D02*
Y887730D01*
X1093470Y918210D02*
X1101090D01*
X1097280Y914400D02*
Y922020D01*
X1154430Y918654D02*
X1162050D01*
X1158240Y914845D02*
Y922465D01*
X1154430Y884364D02*
X1162050D01*
X1158240Y880555D02*
Y888175D01*
X1151890Y788670D02*
X1159510D01*
X1155700Y784860D02*
Y792480D01*
X1151890Y814070D02*
X1159510D01*
X1155700Y810260D02*
Y817880D01*
X708550Y1083547D02*
X716170D01*
X712360Y1079737D02*
Y1087357D01*
X708550Y1034017D02*
X716170D01*
X712360Y1030207D02*
Y1037827D01*
X405130Y1201420D02*
X455930D01*
X430530Y1176020D02*
Y1226820D01*
X405130Y593090D02*
X455930D01*
X430530Y567690D02*
Y618490D01*
X1153160Y593090D02*
X1203960D01*
X1178560Y567690D02*
Y618490D01*
X1153160Y1201420D02*
X1203960D01*
X1178560Y1176020D02*
Y1226820D01*
M02*
