G04*
G04 #@! TF.GenerationSoftware,Altium Limited,Altium Designer,19.0.15 (446)*
G04*
G04 Layer_Color=2752767*
%FSLAX44Y44*%
%MOMM*%
G71*
G01*
G75*
%ADD37C,0.0508*%
%ADD38C,0.0677*%
D37*
X1125728Y840561D02*
Y844625D01*
X1129792D01*
Y840561D01*
X1125728D01*
Y931418D02*
Y935482D01*
X1129792D01*
Y931418D01*
X1125728D01*
X1115568Y956818D02*
Y960882D01*
X1119632D01*
Y956818D01*
X1115568D01*
X630407Y1059667D02*
Y1063731D01*
X634471D01*
Y1059667D01*
X630407D01*
X573278Y1059667D02*
Y1063731D01*
X577342D01*
Y1059667D01*
X573278D01*
X554228Y1023301D02*
Y1027365D01*
X558292D01*
Y1023301D01*
X554228D01*
Y936538D02*
Y940602D01*
X558292D01*
Y936538D01*
X554228D01*
X914908Y839978D02*
Y844042D01*
X918972D01*
Y839978D01*
X914908D01*
Y889508D02*
Y893572D01*
X918972D01*
Y889508D01*
X914908D01*
X949684Y843788D02*
Y847852D01*
X953748D01*
Y843788D01*
X949684D01*
Y886968D02*
Y891032D01*
X953748D01*
Y886968D01*
X949684D01*
X974417Y843788D02*
Y847852D01*
X978482D01*
Y843788D01*
X974417D01*
X1064768D02*
Y847852D01*
X1068832D01*
Y843788D01*
X1064768D01*
X686308Y744728D02*
Y748792D01*
X690372D01*
Y744728D01*
X686308D01*
Y819658D02*
Y823722D01*
X690372D01*
Y819658D01*
X686308D01*
X989838Y878583D02*
Y882647D01*
X993902D01*
Y878583D01*
X989838D01*
X1064768D02*
Y882647D01*
X1068832D01*
Y878583D01*
X1064768D01*
X718058Y942667D02*
Y946731D01*
X722122D01*
Y942667D01*
X718058D01*
Y998728D02*
Y1002792D01*
X722122D01*
Y998728D01*
X718058D01*
X760642Y976244D02*
Y980308D01*
X764706D01*
Y976244D01*
X760642D01*
Y1001644D02*
Y1005708D01*
X764706D01*
Y1001644D01*
X760642D01*
Y1027044D02*
Y1031108D01*
X764706D01*
Y1027044D01*
X760642D01*
Y1052444D02*
Y1056508D01*
X764706D01*
Y1052444D01*
X760642D01*
Y1077844D02*
Y1081908D01*
X764706D01*
Y1077844D01*
X760642D01*
X448818Y1134859D02*
Y1138923D01*
X452882D01*
Y1134859D01*
X448818D01*
X739648Y636778D02*
Y640842D01*
X743712D01*
Y636778D01*
X739648D01*
X765048D02*
Y640842D01*
X769112D01*
Y636778D01*
X765048D01*
X790448D02*
Y640842D01*
X794512D01*
Y636778D01*
X790448D01*
X815848D02*
Y640842D01*
X819912D01*
Y636778D01*
X815848D01*
X841248D02*
Y640842D01*
X845312D01*
Y636778D01*
X841248D01*
X866648D02*
Y640842D01*
X870712D01*
Y636778D01*
X866648D01*
X765048Y839978D02*
Y844042D01*
X769112D01*
Y839978D01*
X765048D01*
X790448D02*
Y844042D01*
X794512D01*
Y839978D01*
X790448D01*
X815848D02*
Y844042D01*
X819912D01*
Y839978D01*
X815848D01*
X841248D02*
Y844042D01*
X845312D01*
Y839978D01*
X841248D01*
X1088898Y786638D02*
Y790702D01*
X1092962D01*
Y786638D01*
X1088898D01*
Y812038D02*
Y816102D01*
X1092962D01*
Y812038D01*
X1088898D01*
X1020317Y800608D02*
Y804672D01*
X1024381D01*
Y800608D01*
X1020317D01*
X970787D02*
Y804672D01*
X974851D01*
Y800608D01*
X970787D01*
X658656Y1140609D02*
Y1144673D01*
X662720D01*
Y1140609D01*
X658656D01*
X633256D02*
Y1144673D01*
X637320D01*
Y1140609D01*
X633256D01*
X607856D02*
Y1144673D01*
X611920D01*
Y1140609D01*
X607856D01*
X526288Y1050798D02*
Y1054862D01*
X530352D01*
Y1050798D01*
X526288D01*
X500888D02*
Y1054862D01*
X504952D01*
Y1050798D01*
X500888D01*
X739648Y589788D02*
Y593852D01*
X743712D01*
Y589788D01*
X739648D01*
X765048D02*
Y593852D01*
X769112D01*
Y589788D01*
X765048D01*
X790448D02*
Y593852D01*
X794512D01*
Y589788D01*
X790448D01*
X815848D02*
Y593852D01*
X819912D01*
Y589788D01*
X815848D01*
X479298Y987338D02*
Y991402D01*
X483362D01*
Y987338D01*
X479298D01*
Y936538D02*
Y940602D01*
X483362D01*
Y936538D01*
X479298D01*
X653288Y964438D02*
Y968502D01*
X657352D01*
Y964438D01*
X653288D01*
X602488D02*
Y968502D01*
X606552D01*
Y964438D01*
X602488D01*
X433578Y718058D02*
Y722122D01*
X437642D01*
Y718058D01*
X433578D01*
Y743458D02*
Y747522D01*
X437642D01*
Y743458D01*
X433578D01*
Y768858D02*
Y772922D01*
X437642D01*
Y768858D01*
X433578D01*
Y794258D02*
Y798322D01*
X437642D01*
Y794258D01*
X433578D01*
Y819658D02*
Y823722D01*
X437642D01*
Y819658D01*
X433578D01*
Y845058D02*
Y849122D01*
X437642D01*
Y845058D01*
X433578D01*
X652018Y819658D02*
Y823722D01*
X656082D01*
Y819658D01*
X652018D01*
Y794258D02*
Y798322D01*
X656082D01*
Y794258D01*
X652018D01*
Y768858D02*
Y772922D01*
X656082D01*
Y768858D01*
X652018D01*
Y743458D02*
Y747522D01*
X656082D01*
Y743458D01*
X652018D01*
Y718058D02*
Y722122D01*
X656082D01*
Y718058D01*
X652018D01*
X832656Y1142192D02*
Y1146256D01*
X836720D01*
Y1142192D01*
X832656D01*
X807256D02*
Y1146256D01*
X811320D01*
Y1142192D01*
X807256D01*
X781856D02*
Y1146256D01*
X785920D01*
Y1142192D01*
X781856D01*
X756456D02*
Y1146256D01*
X760520D01*
Y1142192D01*
X756456D01*
X660908Y1048258D02*
Y1052322D01*
X664972D01*
Y1048258D01*
X660908D01*
Y1082548D02*
Y1086612D01*
X664972D01*
Y1082548D01*
X660908D01*
X810768Y1068106D02*
Y1072170D01*
X814832D01*
Y1068106D01*
X810768D01*
X836168D02*
Y1072170D01*
X840232D01*
Y1068106D01*
X836168D01*
X861568D02*
Y1072170D01*
X865632D01*
Y1068106D01*
X861568D01*
X886968D02*
Y1072170D01*
X891032D01*
Y1068106D01*
X886968D01*
X912368D02*
Y1072170D01*
X916432D01*
Y1068106D01*
X912368D01*
X937768D02*
Y1072170D01*
X941832D01*
Y1068106D01*
X937768D01*
X963168D02*
Y1072170D01*
X967232D01*
Y1068106D01*
X963168D01*
X988568D02*
Y1072170D01*
X992632D01*
Y1068106D01*
X988568D01*
X1013968D02*
Y1072170D01*
X1018032D01*
Y1068106D01*
X1013968D01*
X1039368D02*
Y1072170D01*
X1043432D01*
Y1068106D01*
X1039368D01*
X1064768D02*
Y1072170D01*
X1068832D01*
Y1068106D01*
X1064768D01*
X1090168D02*
Y1072170D01*
X1094232D01*
Y1068106D01*
X1090168D01*
X1115568D02*
Y1072170D01*
X1119632D01*
Y1068106D01*
X1115568D01*
X1140968D02*
Y1072170D01*
X1145032D01*
Y1068106D01*
X1140968D01*
Y991108D02*
Y995172D01*
X1145032D01*
Y991108D01*
X1140968D01*
X1115568D02*
Y995172D01*
X1119632D01*
Y991108D01*
X1115568D01*
X1090168D02*
Y995172D01*
X1094232D01*
Y991108D01*
X1090168D01*
X1064768D02*
Y995172D01*
X1068832D01*
Y991108D01*
X1064768D01*
X1039368D02*
Y995172D01*
X1043432D01*
Y991108D01*
X1039368D01*
X1013968D02*
Y995172D01*
X1018032D01*
Y991108D01*
X1013968D01*
X988568D02*
Y995172D01*
X992632D01*
Y991108D01*
X988568D01*
X963168D02*
Y995172D01*
X967232D01*
Y991108D01*
X963168D01*
X937768D02*
Y995172D01*
X941832D01*
Y991108D01*
X937768D01*
X912368D02*
Y995172D01*
X916432D01*
Y991108D01*
X912368D01*
X886968D02*
Y995172D01*
X891032D01*
Y991108D01*
X886968D01*
X861568D02*
Y995172D01*
X865632D01*
Y991108D01*
X861568D01*
X836168D02*
Y995172D01*
X840232D01*
Y991108D01*
X836168D01*
X810768D02*
Y995172D01*
X814832D01*
Y991108D01*
X810768D01*
X970788Y710438D02*
Y714502D01*
X974852D01*
Y710438D01*
X970788D01*
Y759968D02*
Y764032D01*
X974852D01*
Y759968D01*
X970788D01*
X1081278Y1149858D02*
Y1153922D01*
X1085342D01*
Y1149858D01*
X1081278D01*
X1106678D02*
Y1153922D01*
X1110742D01*
Y1149858D01*
X1106678D01*
X1020318Y710438D02*
Y714502D01*
X1024382D01*
Y710438D01*
X1020318D01*
Y759968D02*
Y764032D01*
X1024382D01*
Y759968D01*
X1020318D01*
X961898Y1152398D02*
Y1156462D01*
X965962D01*
Y1152398D01*
X961898D01*
X996188D02*
Y1156462D01*
X1000252D01*
Y1152398D01*
X996188D01*
X1095248Y881888D02*
Y885952D01*
X1099312D01*
Y881888D01*
X1095248D01*
Y916178D02*
Y920242D01*
X1099312D01*
Y916178D01*
X1095248D01*
X1156208Y916622D02*
Y920686D01*
X1160272D01*
Y916622D01*
X1156208D01*
Y882333D02*
Y886396D01*
X1160272D01*
Y882333D01*
X1156208D01*
X1153668Y786638D02*
Y790702D01*
X1157732D01*
Y786638D01*
X1153668D01*
Y812038D02*
Y816102D01*
X1157732D01*
Y812038D01*
X1153668D01*
X710328Y1081515D02*
Y1085579D01*
X714392D01*
Y1081515D01*
X710328D01*
Y1031985D02*
Y1036049D01*
X714392D01*
Y1031985D01*
X710328D01*
X430530Y1199388D02*
X428498Y1203452D01*
X432562D01*
X430530Y1199388D01*
Y591058D02*
X428498Y595122D01*
X432562D01*
X430530Y591058D01*
X1178560D02*
X1176528Y595122D01*
X1180592D01*
X1178560Y591058D01*
Y1199388D02*
X1176528Y1203452D01*
X1180592D01*
X1178560Y1199388D01*
D38*
X503682Y1136891D02*
G03*
X503682Y1136891I-2032J0D01*
G01*
M02*
