G04*
G04 #@! TF.GenerationSoftware,Altium Limited,Altium Designer,19.0.15 (446)*
G04*
G04 Layer_Color=65535*
%FSLAX44Y44*%
%MOMM*%
G71*
G01*
G75*
%ADD10C,0.5080*%
%ADD11C,0.2540*%
%ADD12C,0.7620*%
%ADD13C,0.6350*%
%ADD14C,0.1778*%
%ADD15C,0.1524*%
%ADD16C,0.1270*%
D10*
X594648Y1161449D02*
G03*
X594648Y1161449I-2540J0D01*
G01*
D11*
X498973Y989370D02*
G03*
X498973Y989370I-17643J0D01*
G01*
X672963Y966470D02*
G03*
X672963Y966470I-17643J0D01*
G01*
X1017270Y1147479D02*
G03*
X1017270Y1147479I-1270J0D01*
G01*
X433070Y1115060D02*
X520700D01*
X433070D02*
Y1158240D01*
X520700D01*
Y1115060D02*
Y1158240D01*
X431800Y689610D02*
Y844550D01*
Y689610D02*
X668020D01*
Y844550D01*
X431800D02*
X668020D01*
X1102360Y727349D02*
Y769259D01*
Y727349D02*
X1158240D01*
Y770529D01*
X1101090D02*
X1158240D01*
X583218Y1127160D02*
Y1169070D01*
Y1127160D02*
X684818D01*
Y1169070D01*
X583218D02*
X684818D01*
X542290Y1037590D02*
Y1079500D01*
X486410D02*
X542290D01*
X486410Y1036320D02*
Y1079500D01*
Y1036320D02*
X543560D01*
X530860Y660400D02*
X654050D01*
Y603250D02*
Y660400D01*
X530860Y603250D02*
X654050D01*
X530860D02*
Y659130D01*
X542290Y647700D01*
Y603250D02*
Y647700D01*
X420370Y903010D02*
X543560D01*
X544830D01*
Y904280D02*
Y1027470D01*
X421640D02*
X544830D01*
X420370Y1026200D02*
X421640Y1027470D01*
X420370Y903010D02*
Y1026200D01*
X568960Y904240D02*
Y1027430D01*
Y902970D02*
Y904240D01*
X570230Y902970D02*
X693420D01*
Y1026160D01*
X692150Y1027430D02*
X693420Y1026160D01*
X568960Y1027430D02*
X692150D01*
X970280Y628650D02*
Y877570D01*
X739140Y628650D02*
X970280D01*
X739140D02*
Y876300D01*
X741680Y878840D01*
X969010D01*
X970280Y877570D01*
X742950Y1111569D02*
Y1168718D01*
Y1111569D02*
X867410D01*
Y1168718D01*
X742950D02*
X867410D01*
X712470Y1078814D02*
X735470D01*
X712470Y1021080D02*
Y1078814D01*
Y1021080D02*
X735330D01*
X735470Y1020940D02*
Y1078814D01*
X1170940Y924560D02*
Y929640D01*
X800100Y924560D02*
X1170940D01*
X800100Y1036320D02*
X1170940D01*
Y929640D02*
Y1036320D01*
X800100Y924560D02*
Y1036320D01*
X990600Y726440D02*
X1026160D01*
Y803910D01*
X990600D02*
X1026160D01*
X990600Y726440D02*
Y803910D01*
X1083310Y1055009D02*
Y1096919D01*
Y1055009D02*
X1139190D01*
Y1098189D01*
X1082040D02*
X1139190D01*
X1046480Y726440D02*
X1082040D01*
Y803910D01*
X1046480D02*
X1082040D01*
X1046480Y726440D02*
Y803910D01*
X1050874Y1054100D02*
Y1077100D01*
X993140D02*
X1050874D01*
X993140Y1054240D02*
Y1077100D01*
X993000Y1054100D02*
X1050874D01*
X1107440Y870534D02*
X1130440D01*
X1107440Y812800D02*
Y870534D01*
Y812800D02*
X1130300D01*
X1130440Y812660D02*
Y870534D01*
X1145400Y812216D02*
X1168400D01*
Y869950D01*
X1145540D02*
X1168400D01*
X1145400Y812216D02*
Y870090D01*
X1102360Y635000D02*
Y676910D01*
Y635000D02*
X1158240D01*
Y678180D01*
X1101090D02*
X1158240D01*
X953770Y1075690D02*
Y1111250D01*
X876300D02*
X953770D01*
X876300Y1075690D02*
Y1111250D01*
Y1075690D02*
X953770D01*
X892810Y1143670D02*
X1019810D01*
X892810D02*
Y1169070D01*
X1019810D01*
Y1143670D02*
Y1169070D01*
X480060Y1176020D02*
Y1191255D01*
X487677D01*
X490217Y1188716D01*
Y1183637D01*
X487677Y1181098D01*
X480060D01*
X495295Y1191255D02*
Y1176020D01*
X500373Y1181098D01*
X505452Y1176020D01*
Y1191255D01*
X510530Y1176020D02*
X515608D01*
X513069D01*
Y1191255D01*
X510530Y1188716D01*
X433070Y853440D02*
Y868675D01*
X438148Y863597D01*
X443227Y868675D01*
Y853440D01*
X455923Y868675D02*
X450844D01*
X448305Y866136D01*
Y855979D01*
X450844Y853440D01*
X455923D01*
X458462Y855979D01*
Y866136D01*
X455923Y868675D01*
X463540Y853440D02*
X468619D01*
X466079D01*
Y868675D01*
X463540Y866136D01*
X604517Y811526D02*
X601978Y814065D01*
X596899D01*
X594360Y811526D01*
Y801369D01*
X596899Y798830D01*
X601978D01*
X604517Y801369D01*
Y806448D01*
X599438D01*
X609595Y798830D02*
Y814065D01*
X619752Y798830D01*
Y814065D01*
X624830D02*
Y798830D01*
X632448D01*
X634987Y801369D01*
Y811526D01*
X632448Y814065D01*
X624830D01*
X474980Y774696D02*
Y762000D01*
Y768348D01*
X483444D01*
Y774696D01*
Y762000D01*
X487676Y774696D02*
X496140Y762000D01*
Y774696D02*
X487676Y762000D01*
X500372Y774696D02*
X508836D01*
Y772580D01*
X500372Y764116D01*
Y762000D01*
X513068D02*
X517300D01*
X515184D01*
Y774696D01*
X513068Y772580D01*
X523648Y762000D02*
X527879D01*
X525764D01*
Y774696D01*
X523648Y772580D01*
X546923Y762000D02*
Y774696D01*
X551155Y770464D01*
X555387Y774696D01*
Y762000D01*
X561735D02*
X565967D01*
X568083Y764116D01*
Y768348D01*
X565967Y770464D01*
X561735D01*
X559619Y768348D01*
Y764116D01*
X561735Y762000D01*
X580779Y774696D02*
Y762000D01*
X574431D01*
X572315Y764116D01*
Y768348D01*
X574431Y770464D01*
X580779D01*
X585011D02*
Y764116D01*
X587127Y762000D01*
X593475D01*
Y770464D01*
X597707Y762000D02*
X601939D01*
X599823D01*
Y774696D01*
X597707D01*
X614635Y762000D02*
X610403D01*
X608287Y764116D01*
Y768348D01*
X610403Y770464D01*
X614635D01*
X616751Y768348D01*
Y766232D01*
X608287D01*
X1112136Y793004D02*
X1109596Y795543D01*
X1104518D01*
X1101979Y793004D01*
Y782847D01*
X1104518Y780308D01*
X1109596D01*
X1112136Y782847D01*
X1119753Y780308D02*
X1124832D01*
X1127371Y782847D01*
Y787925D01*
X1124832Y790464D01*
X1119753D01*
X1117214Y787925D01*
Y782847D01*
X1119753Y780308D01*
X1132449D02*
Y790464D01*
X1140067D01*
X1142606Y787925D01*
Y780308D01*
X1155302D02*
Y795543D01*
X1147684Y787925D01*
X1157841D01*
X993391Y909824D02*
X990852Y912363D01*
X985773D01*
X983234Y909824D01*
Y899667D01*
X985773Y897128D01*
X990852D01*
X993391Y899667D01*
X998469Y907285D02*
Y897128D01*
Y902206D01*
X1001008Y904745D01*
X1003547Y907285D01*
X1006087D01*
X1013704D02*
Y899667D01*
X1016243Y897128D01*
X1023861D01*
Y894589D01*
X1021322Y892050D01*
X1018783D01*
X1023861Y897128D02*
Y907285D01*
X1028939Y897128D02*
X1034018D01*
X1031478D01*
Y912363D01*
X1028939Y909824D01*
X584488Y1193194D02*
Y1183038D01*
X589566Y1177959D01*
X594645Y1183038D01*
Y1193194D01*
X599723Y1177959D02*
X604802D01*
X602262D01*
Y1193194D01*
X599723Y1190655D01*
X496313Y1102102D02*
X493773Y1104641D01*
X488695D01*
X486156Y1102102D01*
Y1091945D01*
X488695Y1089406D01*
X493773D01*
X496313Y1091945D01*
X503930Y1089406D02*
X509009D01*
X511548Y1091945D01*
Y1097023D01*
X509009Y1099563D01*
X503930D01*
X501391Y1097023D01*
Y1091945D01*
X503930Y1089406D01*
X516626D02*
Y1099563D01*
X524244D01*
X526783Y1097023D01*
Y1089406D01*
X531861D02*
X536940D01*
X534400D01*
Y1104641D01*
X531861Y1102102D01*
X431543Y1049056D02*
X429003Y1051595D01*
X423925D01*
X421386Y1049056D01*
Y1038899D01*
X423925Y1036360D01*
X429003D01*
X431543Y1038899D01*
X446778Y1036360D02*
X436621D01*
X446778Y1046517D01*
Y1049056D01*
X444239Y1051595D01*
X439160D01*
X436621Y1049056D01*
X580006Y1049143D02*
X577467Y1051682D01*
X572388D01*
X569849Y1049143D01*
Y1038986D01*
X572388Y1036447D01*
X577467D01*
X580006Y1038986D01*
X585084Y1036447D02*
X590162D01*
X587623D01*
Y1051682D01*
X585084Y1049143D01*
X740410Y887730D02*
Y902965D01*
X745488Y897887D01*
X750567Y902965D01*
Y887730D01*
X763263Y902965D02*
X758184D01*
X755645Y900426D01*
Y890269D01*
X758184Y887730D01*
X763263D01*
X765802Y890269D01*
Y900426D01*
X763263Y902965D01*
X781037Y887730D02*
X770880D01*
X781037Y897887D01*
Y900426D01*
X778498Y902965D01*
X773419D01*
X770880Y900426D01*
X859786Y795023D02*
X862325Y797562D01*
Y802641D01*
X859786Y805180D01*
X857247D01*
X854707Y802641D01*
Y797562D01*
X852168Y795023D01*
X849629D01*
X847090Y797562D01*
Y802641D01*
X849629Y805180D01*
X862325Y789945D02*
Y784867D01*
Y787406D01*
X847090D01*
Y789945D01*
Y784867D01*
Y777249D02*
X862325D01*
X857247Y772171D01*
X862325Y767092D01*
X847090D01*
X859786Y762014D02*
X862325Y759475D01*
Y754396D01*
X859786Y751857D01*
X857247D01*
X854707Y754396D01*
X852168Y751857D01*
X849629D01*
X847090Y754396D01*
Y759475D01*
X849629Y762014D01*
X852168D01*
X854707Y759475D01*
X857247Y762014D01*
X859786D01*
X854707Y759475D02*
Y754396D01*
X859786Y746779D02*
X862325Y744240D01*
Y739161D01*
X859786Y736622D01*
X849629D01*
X847090Y739161D01*
Y744240D01*
X849629Y746779D01*
X859786D01*
Y731544D02*
X862325Y729005D01*
Y723926D01*
X859786Y721387D01*
X849629D01*
X847090Y723926D01*
Y729005D01*
X849629Y731544D01*
X859786D01*
X862325Y716309D02*
X847090D01*
Y706152D01*
X754377Y1190558D02*
X751837Y1193098D01*
X746759D01*
X744220Y1190558D01*
Y1180402D01*
X746759Y1177863D01*
X751837D01*
X754377Y1180402D01*
X761994Y1177863D02*
X767073D01*
X769612Y1180402D01*
Y1185480D01*
X767073Y1188019D01*
X761994D01*
X759455Y1185480D01*
Y1180402D01*
X761994Y1177863D01*
X774690D02*
X779769D01*
X777229D01*
Y1193098D01*
X774690Y1190558D01*
X713740Y1087628D02*
Y1102863D01*
X721357D01*
X723897Y1100324D01*
Y1095246D01*
X721357Y1092706D01*
X713740D01*
X718818D02*
X723897Y1087628D01*
X728975D02*
X734053D01*
X731514D01*
Y1102863D01*
X728975Y1100324D01*
X801370Y1060445D02*
X806448D01*
X803909D01*
Y1045210D01*
X801370D01*
X806448D01*
X824223Y1057906D02*
X821683Y1060445D01*
X816605D01*
X814066Y1057906D01*
Y1047749D01*
X816605Y1045210D01*
X821683D01*
X824223Y1047749D01*
X829301Y1045210D02*
X834379D01*
X831840D01*
Y1060445D01*
X829301Y1057906D01*
X897890Y977900D02*
Y988057D01*
X902968Y993135D01*
X908047Y988057D01*
Y977900D01*
Y985518D01*
X897890D01*
X915664Y990596D02*
Y988057D01*
X913125D01*
X918203D01*
X915664D01*
Y980439D01*
X918203Y977900D01*
X925821D02*
Y988057D01*
X928360D01*
X930899Y985518D01*
Y977900D01*
Y985518D01*
X933438Y988057D01*
X935978Y985518D01*
Y977900D01*
X948674D02*
X943595D01*
X941056Y980439D01*
Y985518D01*
X943595Y988057D01*
X948674D01*
X951213Y985518D01*
Y982978D01*
X941056D01*
X961369Y972822D02*
X963909D01*
X966448Y975361D01*
Y988057D01*
X958830D01*
X956291Y985518D01*
Y980439D01*
X958830Y977900D01*
X966448D01*
X974065Y988057D02*
X979144D01*
X981683Y985518D01*
Y977900D01*
X974065D01*
X971526Y980439D01*
X974065Y982978D01*
X981683D01*
X986761Y990596D02*
X989300Y993135D01*
X994379D01*
X996918Y990596D01*
Y988057D01*
X994379Y985518D01*
X991840D01*
X994379D01*
X996918Y982978D01*
Y980439D01*
X994379Y977900D01*
X989300D01*
X986761Y980439D01*
X1012153Y977900D02*
X1001996D01*
X1012153Y988057D01*
Y990596D01*
X1009614Y993135D01*
X1004536D01*
X1001996Y990596D01*
X1017231D02*
X1019771Y993135D01*
X1024849D01*
X1027388Y990596D01*
Y988057D01*
X1024849Y985518D01*
X1027388Y982978D01*
Y980439D01*
X1024849Y977900D01*
X1019771D01*
X1017231Y980439D01*
Y982978D01*
X1019771Y985518D01*
X1017231Y988057D01*
Y990596D01*
X1019771Y985518D02*
X1024849D01*
X1032467Y972822D02*
Y988057D01*
X1040084D01*
X1042623Y985518D01*
Y980439D01*
X1040084Y977900D01*
X1032467D01*
X1001900Y825369D02*
X999361Y827908D01*
X994282D01*
X991743Y825369D01*
Y815212D01*
X994282Y812673D01*
X999361D01*
X1001900Y815212D01*
X1006978Y825369D02*
X1009517Y827908D01*
X1014596D01*
X1017135Y825369D01*
Y822830D01*
X1014596Y820291D01*
X1012056D01*
X1014596D01*
X1017135Y817751D01*
Y815212D01*
X1014596Y812673D01*
X1009517D01*
X1006978Y815212D01*
X1093213Y1120791D02*
X1090674Y1123330D01*
X1085595D01*
X1083056Y1120791D01*
Y1110634D01*
X1085595Y1108095D01*
X1090674D01*
X1093213Y1110634D01*
X1100830Y1108095D02*
X1105909D01*
X1108448Y1110634D01*
Y1115712D01*
X1105909Y1118251D01*
X1100830D01*
X1098291Y1115712D01*
Y1110634D01*
X1100830Y1108095D01*
X1113526D02*
Y1118251D01*
X1121144D01*
X1123683Y1115712D01*
Y1108095D01*
X1128761Y1120791D02*
X1131300Y1123330D01*
X1136379D01*
X1138918Y1120791D01*
Y1118251D01*
X1136379Y1115712D01*
X1133840D01*
X1136379D01*
X1138918Y1113173D01*
Y1110634D01*
X1136379Y1108095D01*
X1131300D01*
X1128761Y1110634D01*
X1057780Y825369D02*
X1055240Y827908D01*
X1050162D01*
X1047623Y825369D01*
Y815212D01*
X1050162Y812673D01*
X1055240D01*
X1057780Y815212D01*
X1070476Y812673D02*
Y827908D01*
X1062858Y820291D01*
X1073015D01*
X994156Y1085990D02*
Y1101225D01*
X1001774D01*
X1004313Y1098686D01*
Y1093607D01*
X1001774Y1091068D01*
X994156D01*
X999234D02*
X1004313Y1085990D01*
X1009391Y1098686D02*
X1011930Y1101225D01*
X1017009D01*
X1019548Y1098686D01*
Y1096146D01*
X1017009Y1093607D01*
X1014469D01*
X1017009D01*
X1019548Y1091068D01*
Y1088529D01*
X1017009Y1085990D01*
X1011930D01*
X1009391Y1088529D01*
X1108710Y879348D02*
Y894583D01*
X1116328D01*
X1118867Y892044D01*
Y886965D01*
X1116328Y884426D01*
X1108710D01*
X1113788D02*
X1118867Y879348D01*
X1134102D02*
X1123945D01*
X1134102Y889505D01*
Y892044D01*
X1131563Y894583D01*
X1126484D01*
X1123945Y892044D01*
X1146683Y878967D02*
Y894202D01*
X1154301D01*
X1156840Y891663D01*
Y886584D01*
X1154301Y884045D01*
X1146683D01*
X1151761D02*
X1156840Y878967D01*
X1169536D02*
Y894202D01*
X1161918Y886584D01*
X1172075D01*
X1112136Y700655D02*
X1109596Y703194D01*
X1104518D01*
X1101979Y700655D01*
Y690498D01*
X1104518Y687959D01*
X1109596D01*
X1112136Y690498D01*
X1119753Y687959D02*
X1124831D01*
X1127371Y690498D01*
Y695576D01*
X1124831Y698116D01*
X1119753D01*
X1117214Y695576D01*
Y690498D01*
X1119753Y687959D01*
X1132449D02*
Y698116D01*
X1140067D01*
X1142606Y695576D01*
Y687959D01*
X1157841Y703194D02*
X1147684D01*
Y695576D01*
X1152763Y698116D01*
X1155302D01*
X1157841Y695576D01*
Y690498D01*
X1155302Y687959D01*
X1150223D01*
X1147684Y690498D01*
X887727Y1132836D02*
X885188Y1135375D01*
X880109D01*
X877570Y1132836D01*
Y1122679D01*
X880109Y1120140D01*
X885188D01*
X887727Y1122679D01*
X902962Y1135375D02*
X892805D01*
Y1127757D01*
X897883Y1130297D01*
X900423D01*
X902962Y1127757D01*
Y1122679D01*
X900423Y1120140D01*
X895344D01*
X892805Y1122679D01*
X904237Y1190655D02*
X901697Y1193194D01*
X896619D01*
X894080Y1190655D01*
Y1180499D01*
X896619Y1177959D01*
X901697D01*
X904237Y1180499D01*
X911854Y1177959D02*
X916933D01*
X919472Y1180499D01*
Y1185577D01*
X916933Y1188116D01*
X911854D01*
X909315Y1185577D01*
Y1180499D01*
X911854Y1177959D01*
X934707D02*
X924550D01*
X934707Y1188116D01*
Y1190655D01*
X932168Y1193194D01*
X927089D01*
X924550Y1190655D01*
D12*
X768350Y1156019D02*
G03*
X768350Y1156019I-2540J0D01*
G01*
D13*
X810260Y932180D02*
G03*
X810260Y932180I-2540J0D01*
G01*
D14*
X523240Y1108710D02*
Y1102362D01*
X520066D01*
X519008Y1103420D01*
Y1105536D01*
X520066Y1106594D01*
X523240D01*
X515834Y1108710D02*
X513718D01*
X512660Y1107652D01*
Y1105536D01*
X513718Y1104478D01*
X515834D01*
X516892Y1105536D01*
Y1107652D01*
X515834Y1108710D01*
X510544Y1104478D02*
Y1107652D01*
X509486Y1108710D01*
X508428Y1107652D01*
X507370Y1108710D01*
X506312Y1107652D01*
Y1104478D01*
X501022Y1108710D02*
X503138D01*
X504196Y1107652D01*
Y1105536D01*
X503138Y1104478D01*
X501022D01*
X499964Y1105536D01*
Y1106594D01*
X504196D01*
X497848Y1104478D02*
Y1108710D01*
Y1106594D01*
X496790Y1105536D01*
X495732Y1104478D01*
X494674D01*
X480920Y1103420D02*
X481978Y1102362D01*
X484094D01*
X485152Y1103420D01*
Y1107652D01*
X484094Y1108710D01*
X481978D01*
X480920Y1107652D01*
X477746Y1108710D02*
X475630D01*
X474572Y1107652D01*
Y1105536D01*
X475630Y1104478D01*
X477746D01*
X478804Y1105536D01*
Y1107652D01*
X477746Y1108710D01*
X472457D02*
Y1104478D01*
X469282D01*
X468224Y1105536D01*
Y1108710D01*
X466109D02*
Y1104478D01*
X462934D01*
X461876Y1105536D01*
Y1108710D01*
X456587D02*
X458703D01*
X459761Y1107652D01*
Y1105536D01*
X458703Y1104478D01*
X456587D01*
X455529Y1105536D01*
Y1106594D01*
X459761D01*
X449181Y1104478D02*
X452355D01*
X453413Y1105536D01*
Y1107652D01*
X452355Y1108710D01*
X449181D01*
X446007Y1103420D02*
Y1104478D01*
X447065D01*
X444949D01*
X446007D01*
Y1107652D01*
X444949Y1108710D01*
X440717D02*
X438601D01*
X437543Y1107652D01*
Y1105536D01*
X438601Y1104478D01*
X440717D01*
X441775Y1105536D01*
Y1107652D01*
X440717Y1108710D01*
X435427Y1104478D02*
Y1108710D01*
Y1106594D01*
X434369Y1105536D01*
X433311Y1104478D01*
X432253D01*
D15*
X607348Y1165256D02*
Y1155099D01*
X614119D01*
X617505D02*
Y1165256D01*
X620890Y1161870D01*
X624276Y1165256D01*
Y1155099D01*
X627662Y1165256D02*
X634433D01*
Y1163563D01*
X627662Y1156792D01*
Y1155099D01*
X637818Y1163563D02*
X639511Y1165256D01*
X642897D01*
X644589Y1163563D01*
Y1161870D01*
X642897Y1160178D01*
X644589Y1158485D01*
Y1156792D01*
X642897Y1155099D01*
X639511D01*
X637818Y1156792D01*
Y1158485D01*
X639511Y1160178D01*
X637818Y1161870D01*
Y1163563D01*
X639511Y1160178D02*
X642897D01*
X647975Y1163563D02*
X649668Y1165256D01*
X653053D01*
X654746Y1163563D01*
Y1156792D01*
X653053Y1155099D01*
X649668D01*
X647975Y1156792D01*
Y1163563D01*
X664903Y1165256D02*
X658132D01*
Y1160178D01*
X661517Y1161870D01*
X663210D01*
X664903Y1160178D01*
Y1156792D01*
X663210Y1155099D01*
X659825D01*
X658132Y1156792D01*
D16*
X720090Y1052830D02*
X727708D01*
Y1049021D01*
X726438Y1047752D01*
X723899D01*
X722629Y1049021D01*
Y1052830D01*
Y1050291D02*
X720090Y1047752D01*
X1012190Y759036D02*
Y755650D01*
X1008804Y759036D01*
X1007958D01*
X1007112Y758189D01*
Y756496D01*
X1007958Y755650D01*
X1012190Y764114D02*
Y760728D01*
X1008804Y764114D01*
X1007958D01*
X1007112Y763268D01*
Y761575D01*
X1007958Y760728D01*
X1012190Y765807D02*
X1008804D01*
Y768346D01*
X1009651Y769192D01*
X1012190D01*
X1007112Y774271D02*
Y770885D01*
X1009651D01*
Y772578D01*
Y770885D01*
X1012190D01*
X1068070Y759036D02*
Y755650D01*
X1064684Y759036D01*
X1063838D01*
X1062992Y758189D01*
Y756496D01*
X1063838Y755650D01*
X1068070Y764114D02*
Y760728D01*
X1064684Y764114D01*
X1063838D01*
X1062992Y763268D01*
Y761575D01*
X1063838Y760728D01*
X1068070Y765807D02*
X1064684D01*
Y768346D01*
X1065531Y769192D01*
X1068070D01*
X1062992Y774271D02*
Y770885D01*
X1065531D01*
Y772578D01*
Y770885D01*
X1068070D01*
X1024890Y1069480D02*
Y1061862D01*
X1021081D01*
X1019812Y1063132D01*
Y1065671D01*
X1021081Y1066941D01*
X1024890D01*
X1022351D02*
X1019812Y1069480D01*
X1115060Y844550D02*
X1122678D01*
Y840741D01*
X1121408Y839472D01*
X1118869D01*
X1117599Y840741D01*
Y844550D01*
Y842011D02*
X1115060Y839472D01*
X1160780Y838200D02*
X1153163D01*
Y842009D01*
X1154432Y843278D01*
X1156971D01*
X1158241Y842009D01*
Y838200D01*
Y840739D02*
X1160780Y843278D01*
X921174Y1097280D02*
X924560D01*
X921174Y1093894D01*
Y1093048D01*
X922021Y1092202D01*
X923714D01*
X924560Y1093048D01*
X916096Y1097280D02*
X919482D01*
X916096Y1093894D01*
Y1093048D01*
X916943Y1092202D01*
X918635D01*
X919482Y1093048D01*
X914403Y1097280D02*
Y1093894D01*
X911864D01*
X911018Y1094741D01*
Y1097280D01*
X905939Y1092202D02*
X909325D01*
Y1094741D01*
X907632D01*
X909325D01*
Y1097280D01*
M02*
