G04*
G04 #@! TF.GenerationSoftware,Altium Limited,Altium Designer,19.0.15 (446)*
G04*
G04 Layer_Color=16711935*
%FSLAX44Y44*%
%MOMM*%
G71*
G01*
G75*
%ADD11C,0.2540*%
D11*
X519430Y1116330D02*
Y1155700D01*
X435610Y1116330D02*
X519430D01*
X435610D02*
Y1155700D01*
X519430D01*
X426249Y1094069D02*
X532249D01*
X426249D02*
Y1169070D01*
X532249D01*
Y1094069D02*
Y1169070D01*
X431912Y844081D02*
X667911D01*
Y690081D02*
Y844081D01*
X431912Y690081D02*
X667911D01*
X431912D02*
Y844081D01*
X1100802Y771440D02*
X1159802D01*
Y726440D02*
Y771440D01*
X1100802Y726440D02*
X1159802D01*
X1100802D02*
Y771152D01*
X1101090Y771440D01*
X583218Y1127119D02*
Y1169070D01*
Y1127119D02*
X684818D01*
Y1169070D01*
X583218D02*
X684818D01*
X484848Y1035409D02*
X543848D01*
X484848D02*
Y1080409D01*
X543848D01*
Y1035697D02*
Y1080409D01*
X543560Y1035409D02*
X543848Y1035697D01*
X531091Y659942D02*
X655092D01*
Y602441D02*
Y659942D01*
X531091Y602441D02*
X655092D01*
X531091D02*
Y659942D01*
X420139Y902742D02*
X544562D01*
X545058Y903238D01*
Y1027539D01*
X420139D02*
X545058D01*
X420139Y902742D02*
Y1027539D01*
X568692Y903238D02*
Y1027661D01*
Y903238D02*
X569188Y902742D01*
X693488D01*
Y1027661D01*
X568692D02*
X693488D01*
X970235Y627570D02*
Y877570D01*
X739185Y627570D02*
X970235D01*
X739185D02*
Y877570D01*
X970235D01*
X743180Y1111569D02*
Y1169070D01*
Y1111569D02*
X867180D01*
Y1169070D01*
X743180D02*
X867180D01*
X735470Y1020940D02*
Y1078814D01*
X712470Y1021080D02*
X735330D01*
X712470D02*
Y1078814D01*
X735470D01*
X735330Y1021080D02*
X735470Y1020940D01*
X800100Y924560D02*
Y1036320D01*
X1170940D01*
Y929640D02*
Y1036320D01*
Y924560D02*
Y929640D01*
X800100Y924560D02*
X1170940D01*
X800100D02*
X1170940D01*
Y929640D01*
Y1036320D01*
X800100D02*
X1170940D01*
X800100Y924560D02*
Y1036320D01*
X1026160Y726440D02*
Y737870D01*
X991161Y726440D02*
X1026160D01*
X991161D02*
Y803910D01*
X1026160D01*
Y737870D02*
Y803910D01*
X1081752Y1099100D02*
X1140752D01*
Y1054100D02*
Y1099100D01*
X1081752Y1054100D02*
X1140752D01*
X1081752D02*
Y1098812D01*
X1082040Y1099100D01*
Y726440D02*
Y737870D01*
X1047041Y726440D02*
X1082040D01*
X1047041D02*
Y803910D01*
X1082040D01*
Y737870D02*
Y803910D01*
X993000Y1054100D02*
X1050874D01*
X993140Y1054240D02*
Y1077100D01*
X1050874D01*
Y1054100D02*
Y1077100D01*
X993000Y1054100D02*
X993140Y1054240D01*
X1130440Y812660D02*
Y870534D01*
X1107440Y812800D02*
X1130300D01*
X1107440D02*
Y870534D01*
X1130440D01*
X1130300Y812800D02*
X1130440Y812660D01*
X1145400Y812216D02*
Y870090D01*
X1145540Y869950D02*
X1168400D01*
Y812216D02*
Y869950D01*
X1145400Y812216D02*
X1168400D01*
X1145400Y870090D02*
X1145540Y869950D01*
X1100802Y679091D02*
X1159802D01*
Y634091D02*
Y679091D01*
X1100802Y634091D02*
X1159802D01*
X1100802D02*
Y678803D01*
X1101090Y679091D01*
X942340Y1111250D02*
X953770D01*
Y1076251D02*
Y1111250D01*
X876300Y1076251D02*
X953770D01*
X876300D02*
Y1111250D01*
X942340D01*
X892810Y1143670D02*
X1019810D01*
X892810D02*
Y1169070D01*
X1019810D01*
Y1143670D02*
Y1169070D01*
M02*
