G04*
G04 #@! TF.GenerationSoftware,Altium Limited,Altium Designer,19.0.15 (446)*
G04*
G04 Layer_Physical_Order=2*
G04 Layer_Color=16711680*
%FSLAX44Y44*%
%MOMM*%
G71*
G01*
G75*
%ADD10C,1.2700*%
%ADD11C,0.7620*%
%ADD12C,1.5240*%
%ADD13C,5.0800*%
%ADD14C,1.2700*%
G36*
X1225164Y1247142D02*
X1225649Y1245969D01*
X1224280Y1244600D01*
Y548640D01*
X375920D01*
Y1247511D01*
X376819Y1248409D01*
X1225164Y1247142D01*
D02*
G37*
%LPC*%
G36*
X1178560Y1229446D02*
X1174176Y1229101D01*
X1169899Y1228075D01*
X1165836Y1226392D01*
X1162086Y1224094D01*
X1158742Y1221238D01*
X1155886Y1217894D01*
X1153588Y1214144D01*
X1151905Y1210081D01*
X1150879Y1205804D01*
X1150534Y1201420D01*
X1150879Y1197036D01*
X1151905Y1192759D01*
X1153588Y1188696D01*
X1155886Y1184947D01*
X1158742Y1181602D01*
X1162086Y1178746D01*
X1165836Y1176448D01*
X1169899Y1174765D01*
X1174176Y1173739D01*
X1178560Y1173394D01*
X1182944Y1173739D01*
X1187221Y1174765D01*
X1191284Y1176448D01*
X1195033Y1178746D01*
X1198378Y1181602D01*
X1201234Y1184947D01*
X1203532Y1188696D01*
X1205215Y1192759D01*
X1206241Y1197036D01*
X1206586Y1201420D01*
X1206241Y1205804D01*
X1205215Y1210081D01*
X1203532Y1214144D01*
X1201234Y1217894D01*
X1198378Y1221238D01*
X1195033Y1224094D01*
X1191284Y1226392D01*
X1187221Y1228075D01*
X1182944Y1229101D01*
X1178560Y1229446D01*
D02*
G37*
G36*
X430530D02*
X426146Y1229101D01*
X421869Y1228075D01*
X417806Y1226392D01*
X414057Y1224094D01*
X410712Y1221238D01*
X407856Y1217894D01*
X405558Y1214144D01*
X403875Y1210081D01*
X402849Y1205804D01*
X402504Y1201420D01*
X402849Y1197036D01*
X403875Y1192759D01*
X405558Y1188696D01*
X407856Y1184947D01*
X410712Y1181602D01*
X414057Y1178746D01*
X417806Y1176448D01*
X421869Y1174765D01*
X426146Y1173739D01*
X430530Y1173394D01*
X434914Y1173739D01*
X439191Y1174765D01*
X443254Y1176448D01*
X447004Y1178746D01*
X450348Y1181602D01*
X453204Y1184947D01*
X455502Y1188696D01*
X457185Y1192759D01*
X458211Y1197036D01*
X458556Y1201420D01*
X458211Y1205804D01*
X457185Y1210081D01*
X455502Y1214144D01*
X453204Y1217894D01*
X450348Y1221238D01*
X447004Y1224094D01*
X443254Y1226392D01*
X439191Y1228075D01*
X434914Y1229101D01*
X430530Y1229446D01*
D02*
G37*
G36*
X962059Y1212927D02*
X666733D01*
X664412Y1212621D01*
X662249Y1211725D01*
X660392Y1210300D01*
X623648Y1173557D01*
X471170D01*
X468849Y1173251D01*
X466687Y1172355D01*
X464830Y1170930D01*
X455849Y1161950D01*
X454424Y1160093D01*
X453529Y1157931D01*
X453223Y1155610D01*
Y1152391D01*
X446802Y1145971D01*
X445726Y1145525D01*
X443604Y1143896D01*
X441975Y1141774D01*
X440951Y1139302D01*
X440602Y1136650D01*
X440951Y1133998D01*
X441883Y1131748D01*
Y1019850D01*
X442189Y1017529D01*
X443085Y1015367D01*
X444510Y1013510D01*
X471523Y986496D01*
X472455Y984246D01*
X474084Y982124D01*
X476206Y980495D01*
X478678Y979472D01*
X481330Y979122D01*
X483982Y979472D01*
X486454Y980495D01*
X488576Y982124D01*
X490205Y984246D01*
X491228Y986718D01*
X491578Y989370D01*
X491228Y992022D01*
X490205Y994494D01*
X488576Y996616D01*
X486454Y998245D01*
X484204Y999177D01*
X459817Y1023564D01*
Y1131748D01*
X460748Y1133998D01*
X460833Y1134640D01*
X468530Y1142337D01*
X469955Y1144194D01*
X470851Y1146356D01*
X471156Y1148677D01*
Y1151896D01*
X474884Y1155623D01*
X623648D01*
X625835Y1153436D01*
Y1146128D01*
X625390Y1145052D01*
X625040Y1142400D01*
X625390Y1139747D01*
X626413Y1137276D01*
X628042Y1135153D01*
X630164Y1133525D01*
X632414Y1132593D01*
X645555Y1119452D01*
X656513Y1108493D01*
Y980344D01*
X652446Y976277D01*
X650196Y975345D01*
X648074Y973716D01*
X646445Y971594D01*
X645422Y969122D01*
X645072Y966470D01*
X645422Y963818D01*
X646353Y961568D01*
Y888904D01*
X643900Y886450D01*
X642475Y884593D01*
X641579Y882431D01*
X641273Y880110D01*
Y859790D01*
Y811352D01*
X640341Y809102D01*
X639992Y806450D01*
X640341Y803798D01*
X641365Y801326D01*
X642994Y799204D01*
X645116Y797575D01*
X647588Y796552D01*
X650240Y796202D01*
X652892Y796552D01*
X655364Y797575D01*
X657486Y799204D01*
X659115Y801326D01*
X660138Y803798D01*
X660488Y806450D01*
X660138Y809102D01*
X659207Y811352D01*
Y850823D01*
X680816D01*
X693430Y838210D01*
X695287Y836785D01*
X697449Y835889D01*
X699770Y835583D01*
X702091Y835889D01*
X704253Y836785D01*
X706110Y838210D01*
X707535Y840067D01*
X708431Y842229D01*
X708737Y844550D01*
X708431Y846871D01*
X707535Y849033D01*
X706110Y850890D01*
X690870Y866130D01*
X689013Y867555D01*
X686851Y868451D01*
X684530Y868757D01*
X659207D01*
Y876396D01*
X661660Y878850D01*
X663085Y880707D01*
X663981Y882869D01*
X664287Y885190D01*
Y961568D01*
X665127Y963596D01*
X671820Y970290D01*
X673245Y972147D01*
X674141Y974309D01*
X674447Y976630D01*
Y1112208D01*
X674141Y1114528D01*
X673716Y1115556D01*
X674564Y1116826D01*
X708717D01*
X709148Y1115556D01*
X708489Y1115050D01*
X685810Y1092371D01*
X684385Y1090514D01*
X683489Y1088351D01*
X683183Y1086031D01*
Y1066800D01*
X683489Y1064479D01*
X684385Y1062317D01*
X685810Y1060460D01*
X687667Y1059035D01*
X689829Y1058139D01*
X692150Y1057833D01*
X718998D01*
X721248Y1056901D01*
X723900Y1056552D01*
X726552Y1056901D01*
X729024Y1057925D01*
X731146Y1059554D01*
X732775Y1061676D01*
X733799Y1064148D01*
X734148Y1066800D01*
X733799Y1069452D01*
X732775Y1071924D01*
X731146Y1074046D01*
X729024Y1075675D01*
X726552Y1076699D01*
X723900Y1077048D01*
X721248Y1076699D01*
X718998Y1075767D01*
X701117D01*
Y1082316D01*
X718544Y1099743D01*
X787580D01*
X789901Y1100049D01*
X792064Y1100945D01*
X793921Y1102370D01*
X798334Y1106783D01*
X799759Y1108640D01*
X800655Y1110803D01*
X800961Y1113123D01*
Y1130061D01*
X801355Y1130575D01*
X802378Y1133046D01*
X802728Y1135698D01*
X802378Y1138351D01*
X801933Y1139427D01*
Y1145614D01*
X820530Y1164211D01*
X821093Y1164445D01*
X822950Y1165870D01*
X831754Y1174673D01*
X952578D01*
X958238Y1169014D01*
X957676Y1167875D01*
X957580Y1167887D01*
X954928Y1167538D01*
X952456Y1166514D01*
X950334Y1164886D01*
X948705Y1162763D01*
X947682Y1160292D01*
X947332Y1157639D01*
X947682Y1154987D01*
X948613Y1152738D01*
Y1137920D01*
X948919Y1135599D01*
X949815Y1133437D01*
X951240Y1131580D01*
X971473Y1111346D01*
Y1069244D01*
X956406Y1054177D01*
X866140D01*
X863819Y1053871D01*
X861657Y1052975D01*
X859800Y1051550D01*
X858375Y1049693D01*
X857479Y1047531D01*
X857173Y1045210D01*
X857479Y1042889D01*
X858375Y1040727D01*
X859800Y1038870D01*
X861657Y1037445D01*
X863819Y1036549D01*
X866140Y1036243D01*
X960120D01*
X962441Y1036549D01*
X964603Y1037445D01*
X966460Y1038870D01*
X986780Y1059190D01*
X988205Y1061047D01*
X989101Y1063209D01*
X989407Y1065530D01*
Y1115060D01*
X989101Y1117381D01*
X988205Y1119543D01*
X986780Y1121400D01*
X966547Y1141634D01*
Y1152738D01*
X967478Y1154987D01*
X967828Y1157639D01*
X967815Y1157736D01*
X968954Y1158297D01*
X973660Y1153592D01*
X974105Y1152516D01*
X975734Y1150393D01*
X977856Y1148765D01*
X980328Y1147741D01*
X982980Y1147392D01*
X985632Y1147741D01*
X988104Y1148765D01*
X990226Y1150393D01*
X991855Y1152516D01*
X992878Y1154987D01*
X993228Y1157639D01*
X993125Y1158417D01*
X994328Y1159010D01*
X998573Y1154765D01*
X999413Y1152738D01*
Y1117250D01*
X998230Y1116066D01*
X996805Y1114209D01*
X995909Y1112047D01*
X995603Y1109726D01*
Y1070572D01*
X994671Y1068322D01*
X994322Y1065670D01*
X994671Y1063017D01*
X995603Y1060768D01*
Y1058612D01*
X967406Y1030414D01*
X965156Y1029482D01*
X963034Y1027854D01*
X961405Y1025731D01*
X960381Y1023260D01*
X960032Y1020608D01*
X960381Y1017955D01*
X961405Y1015484D01*
X963034Y1013361D01*
X965156Y1011733D01*
X967406Y1010801D01*
X986713Y991493D01*
Y948512D01*
X985781Y946262D01*
X985432Y943610D01*
X985781Y940958D01*
X986713Y938708D01*
Y915755D01*
X972830Y901871D01*
X971405Y900014D01*
X970509Y897851D01*
X970203Y895530D01*
Y750570D01*
X970509Y748249D01*
X971405Y746087D01*
X972830Y744230D01*
X982504Y734556D01*
X984361Y733131D01*
X986523Y732235D01*
X988844Y731929D01*
X1002743D01*
X1003256Y731535D01*
X1005728Y730511D01*
X1008380Y730162D01*
X1011032Y730511D01*
X1013282Y731443D01*
X1055293D01*
Y723900D01*
X1055599Y721579D01*
X1056495Y719417D01*
X1057920Y717560D01*
X1068080Y707400D01*
X1069937Y705975D01*
X1072099Y705079D01*
X1074420Y704773D01*
X1154430D01*
X1156751Y705079D01*
X1158913Y705975D01*
X1160770Y707400D01*
X1177280Y723910D01*
X1178705Y725767D01*
X1179601Y727929D01*
X1179907Y730250D01*
Y810260D01*
X1179601Y812581D01*
X1178705Y814743D01*
X1177280Y816600D01*
X1166777Y827104D01*
X1165845Y829354D01*
X1164216Y831476D01*
X1162094Y833105D01*
X1159622Y834128D01*
X1156970Y834478D01*
X1154318Y834128D01*
X1152068Y833197D01*
X1123772D01*
X1121522Y834128D01*
X1118870Y834478D01*
X1116218Y834128D01*
X1113746Y833105D01*
X1111624Y831476D01*
X1109995Y829354D01*
X1108971Y826882D01*
X1108622Y824230D01*
X1108971Y821578D01*
X1109995Y819106D01*
X1111624Y816984D01*
X1113746Y815355D01*
X1116218Y814332D01*
X1118870Y813982D01*
X1121522Y814332D01*
X1123772Y815263D01*
X1152068D01*
X1154096Y814423D01*
X1161973Y806546D01*
Y733964D01*
X1150716Y722707D01*
X1078134D01*
X1073227Y727614D01*
Y735508D01*
X1074158Y737758D01*
X1074508Y740410D01*
X1074158Y743062D01*
X1073135Y745534D01*
X1071506Y747656D01*
X1069384Y749285D01*
X1066912Y750309D01*
X1064260Y750658D01*
X1061608Y750309D01*
X1059358Y749377D01*
X1013282D01*
X1011032Y750309D01*
X1008380Y750658D01*
X1005728Y750309D01*
X1004651Y749863D01*
X992558D01*
X988137Y754284D01*
Y891816D01*
X1001339Y905019D01*
X1002296Y904180D01*
X1001885Y903643D01*
X1000989Y901481D01*
X1000683Y899160D01*
Y868502D01*
X999752Y866252D01*
X999402Y863600D01*
X999537Y862580D01*
X999413Y861643D01*
Y794842D01*
X998482Y792592D01*
X998132Y789940D01*
X998482Y787288D01*
X999505Y784816D01*
X1001134Y782694D01*
X1003256Y781065D01*
X1005728Y780042D01*
X1008380Y779692D01*
X1011032Y780042D01*
X1013504Y781065D01*
X1015626Y782694D01*
X1017255Y784816D01*
X1018279Y787288D01*
X1018628Y789940D01*
X1018279Y792592D01*
X1017347Y794842D01*
Y856941D01*
X1018525Y858476D01*
X1019548Y860948D01*
X1019898Y863600D01*
X1019548Y866252D01*
X1018617Y868502D01*
Y895446D01*
X1027420Y904250D01*
X1028845Y906107D01*
X1029741Y908269D01*
X1030047Y910590D01*
Y938708D01*
X1030978Y940958D01*
X1031328Y943610D01*
X1030978Y946262D01*
X1029955Y948734D01*
X1028326Y950856D01*
X1026204Y952485D01*
X1023732Y953509D01*
X1021080Y953858D01*
X1018428Y953509D01*
X1015956Y952485D01*
X1013834Y950856D01*
X1012205Y948734D01*
X1011181Y946262D01*
X1010832Y943610D01*
X1011181Y940958D01*
X1012113Y938708D01*
Y914304D01*
X1003991Y906181D01*
X1003034Y907021D01*
X1003445Y907557D01*
X1004341Y909720D01*
X1004647Y912040D01*
Y938708D01*
X1005579Y940958D01*
X1005928Y943610D01*
X1005579Y946262D01*
X1004647Y948512D01*
Y995207D01*
X1004647Y995208D01*
X1004341Y997528D01*
X1003445Y999691D01*
X1002020Y1001548D01*
X994309Y1009259D01*
X994902Y1010462D01*
X995680Y1010360D01*
X998332Y1010709D01*
X1000804Y1011733D01*
X1002926Y1013361D01*
X1004555Y1015484D01*
X1005579Y1017955D01*
X1005928Y1020608D01*
X1005579Y1023260D01*
X1004555Y1025731D01*
X1002926Y1027854D01*
X1000804Y1029482D01*
X998332Y1030506D01*
X995680Y1030855D01*
X994902Y1030753D01*
X994309Y1031956D01*
X1010910Y1048557D01*
X1012335Y1050414D01*
X1013231Y1052577D01*
X1013537Y1054898D01*
Y1060768D01*
X1014469Y1063017D01*
X1014818Y1065670D01*
X1014469Y1068322D01*
X1013537Y1070572D01*
Y1106012D01*
X1014720Y1107196D01*
X1016145Y1109053D01*
X1017041Y1111215D01*
X1017347Y1113536D01*
Y1152738D01*
X1018279Y1154987D01*
X1018628Y1157639D01*
X1018279Y1160292D01*
X1017255Y1162763D01*
X1015626Y1164886D01*
X1013504Y1166514D01*
X1011254Y1167446D01*
X968400Y1210300D01*
X966543Y1211725D01*
X964380Y1212621D01*
X962059Y1212927D01*
D02*
G37*
G36*
X906780Y1167887D02*
X904128Y1167538D01*
X901656Y1166514D01*
X899534Y1164886D01*
X897905Y1162763D01*
X896881Y1160292D01*
X896797Y1159650D01*
X882479Y1145332D01*
X881054Y1143475D01*
X880158Y1141312D01*
X879853Y1138992D01*
Y1118870D01*
X880158Y1116549D01*
X881054Y1114387D01*
X882479Y1112530D01*
X884336Y1111105D01*
X886499Y1110209D01*
X888820Y1109903D01*
X891140Y1110209D01*
X893303Y1111105D01*
X895160Y1112530D01*
X896585Y1114387D01*
X897481Y1116549D01*
X897786Y1118870D01*
Y1135278D01*
X910828Y1148319D01*
X911904Y1148765D01*
X914026Y1150393D01*
X915655Y1152516D01*
X916678Y1154987D01*
X917028Y1157639D01*
X916678Y1160292D01*
X915655Y1162763D01*
X914026Y1164886D01*
X911904Y1166514D01*
X909432Y1167538D01*
X906780Y1167887D01*
D02*
G37*
G36*
X1097280Y1091926D02*
X1094628Y1091577D01*
X1092378Y1090646D01*
X1054869D01*
X1054869Y1090646D01*
X1052548Y1090340D01*
X1050386Y1089444D01*
X1048529Y1088019D01*
X1048529Y1088019D01*
X1035986Y1075476D01*
X1033736Y1074545D01*
X1031614Y1072916D01*
X1029985Y1070794D01*
X1028961Y1068322D01*
X1028612Y1065670D01*
X1028961Y1063017D01*
X1029985Y1060546D01*
X1031614Y1058423D01*
X1033736Y1056795D01*
X1036208Y1055771D01*
X1038860Y1055422D01*
X1041512Y1055771D01*
X1043984Y1056795D01*
X1046106Y1058423D01*
X1047735Y1060546D01*
X1048667Y1062795D01*
X1058583Y1072712D01*
X1092378D01*
X1094628Y1071780D01*
X1097280Y1071431D01*
X1099932Y1071780D01*
X1102404Y1072804D01*
X1104526Y1074433D01*
X1106155Y1076555D01*
X1107178Y1079026D01*
X1107528Y1081679D01*
X1107178Y1084331D01*
X1106155Y1086803D01*
X1104526Y1088925D01*
X1102404Y1090554D01*
X1099932Y1091577D01*
X1097280Y1091926D01*
D02*
G37*
G36*
X935990Y1127837D02*
X933669Y1127531D01*
X931507Y1126635D01*
X929650Y1125210D01*
X928225Y1123353D01*
X927329Y1121191D01*
X927023Y1118870D01*
X927329Y1116549D01*
X928225Y1114387D01*
X929650Y1112530D01*
X930347Y1111832D01*
Y1097199D01*
X929902Y1096122D01*
X929552Y1093470D01*
X929902Y1090818D01*
X930925Y1088346D01*
X932554Y1086224D01*
X934676Y1084595D01*
X937148Y1083571D01*
X939800Y1083222D01*
X942452Y1083571D01*
X944924Y1084595D01*
X947046Y1086224D01*
X948675Y1088346D01*
X949698Y1090818D01*
X950048Y1093470D01*
X949698Y1096122D01*
X948675Y1098594D01*
X948281Y1099107D01*
Y1115546D01*
X947975Y1117867D01*
X947079Y1120029D01*
X945654Y1121886D01*
X942330Y1125210D01*
X940473Y1126635D01*
X938311Y1127531D01*
X935990Y1127837D01*
D02*
G37*
G36*
X890270Y1103718D02*
X887618Y1103369D01*
X885146Y1102345D01*
X884633Y1101951D01*
X872365D01*
X870044Y1101645D01*
X867882Y1100749D01*
X866025Y1099324D01*
X859800Y1093099D01*
X858375Y1091242D01*
X857479Y1089080D01*
X857173Y1086759D01*
X857479Y1084438D01*
X858375Y1082275D01*
X859800Y1080418D01*
X861657Y1078993D01*
X863819Y1078098D01*
X866140Y1077792D01*
X868461Y1078098D01*
X870623Y1078993D01*
X872480Y1080418D01*
X876079Y1084017D01*
X886541D01*
X887618Y1083571D01*
X890270Y1083222D01*
X892922Y1083571D01*
X895394Y1084595D01*
X897516Y1086224D01*
X899145Y1088346D01*
X900169Y1090818D01*
X900518Y1093470D01*
X900169Y1096122D01*
X899145Y1098594D01*
X897516Y1100716D01*
X895394Y1102345D01*
X892922Y1103369D01*
X890270Y1103718D01*
D02*
G37*
G36*
X932180Y1167887D02*
X929528Y1167538D01*
X927056Y1166514D01*
X924934Y1164886D01*
X923305Y1162763D01*
X922281Y1160292D01*
X921932Y1157639D01*
X922281Y1154987D01*
X922727Y1153911D01*
Y1147498D01*
X908060Y1132830D01*
X906635Y1130973D01*
X905739Y1128811D01*
X905433Y1126490D01*
Y1083214D01*
X896856Y1074636D01*
X866140D01*
X863819Y1074331D01*
X861657Y1073435D01*
X859800Y1072010D01*
X858375Y1070153D01*
X857479Y1067990D01*
X857173Y1065670D01*
X857479Y1063349D01*
X858375Y1061186D01*
X859800Y1059329D01*
X861657Y1057904D01*
X863819Y1057009D01*
X866140Y1056703D01*
X900570D01*
X902890Y1057009D01*
X905053Y1057904D01*
X906910Y1059329D01*
X920740Y1073160D01*
X922165Y1075017D01*
X923061Y1077179D01*
X923367Y1079500D01*
Y1122776D01*
X938034Y1137444D01*
X939459Y1139301D01*
X940355Y1141463D01*
X940661Y1143784D01*
Y1152002D01*
X941055Y1152516D01*
X942078Y1154987D01*
X942428Y1157639D01*
X942078Y1160292D01*
X941055Y1162763D01*
X939426Y1164886D01*
X937304Y1166514D01*
X934832Y1167538D01*
X932180Y1167887D01*
D02*
G37*
G36*
X501650Y1146898D02*
X498998Y1146548D01*
X496526Y1145525D01*
X494404Y1143896D01*
X492775Y1141774D01*
X491843Y1139524D01*
X476260Y1123940D01*
X474835Y1122083D01*
X473939Y1119921D01*
X473633Y1117600D01*
Y1073150D01*
X473939Y1070829D01*
X474835Y1068667D01*
X476260Y1066810D01*
X493113Y1049956D01*
X494045Y1047706D01*
X495674Y1045584D01*
X497796Y1043955D01*
X500268Y1042932D01*
X502920Y1042582D01*
X505572Y1042932D01*
X508044Y1043955D01*
X510166Y1045584D01*
X511795Y1047706D01*
X512818Y1050178D01*
X513168Y1052830D01*
X512818Y1055482D01*
X511795Y1057954D01*
X510166Y1060076D01*
X508044Y1061705D01*
X505794Y1062637D01*
X491567Y1076864D01*
Y1113886D01*
X504524Y1126843D01*
X506774Y1127775D01*
X508896Y1129404D01*
X510525Y1131526D01*
X511549Y1133998D01*
X511898Y1136650D01*
X511549Y1139302D01*
X510525Y1141774D01*
X508896Y1143896D01*
X506774Y1145525D01*
X504302Y1146548D01*
X501650Y1146898D01*
D02*
G37*
G36*
X791210Y1074636D02*
X787540D01*
X785219Y1074331D01*
X783056Y1073435D01*
X781199Y1072010D01*
X749310Y1040120D01*
X747885Y1038263D01*
X746989Y1036101D01*
X746683Y1033780D01*
Y1029970D01*
X746989Y1027649D01*
X747885Y1025487D01*
X749310Y1023630D01*
X751167Y1022205D01*
X753329Y1021309D01*
X755650Y1021003D01*
X757971Y1021309D01*
X760133Y1022205D01*
X761990Y1023630D01*
X763415Y1025487D01*
X764311Y1027649D01*
X764617Y1029970D01*
Y1030066D01*
X791261Y1056710D01*
X793531Y1057009D01*
X795693Y1057904D01*
X797550Y1059329D01*
X798975Y1061186D01*
X799871Y1063349D01*
X800177Y1065670D01*
X799871Y1067990D01*
X798975Y1070153D01*
X797550Y1072010D01*
X795693Y1073435D01*
X793531Y1074331D01*
X791210Y1074636D01*
D02*
G37*
G36*
X624840Y1075767D02*
X581660D01*
X579339Y1075461D01*
X577177Y1074565D01*
X575320Y1073140D01*
X551190Y1049010D01*
X549765Y1047153D01*
X548869Y1044991D01*
X548563Y1042670D01*
Y1023620D01*
X548869Y1021299D01*
X549765Y1019137D01*
X551190Y1017280D01*
X553047Y1015855D01*
X555209Y1014959D01*
X557530Y1014653D01*
X559851Y1014959D01*
X562013Y1015855D01*
X563870Y1017280D01*
X565295Y1019137D01*
X566191Y1021299D01*
X566497Y1023620D01*
Y1038956D01*
X585374Y1057833D01*
X624840D01*
X627161Y1058139D01*
X629323Y1059035D01*
X631180Y1060460D01*
X632605Y1062317D01*
X633501Y1064479D01*
X633807Y1066800D01*
X633501Y1069121D01*
X632605Y1071283D01*
X631180Y1073140D01*
X629323Y1074565D01*
X627161Y1075461D01*
X624840Y1075767D01*
D02*
G37*
G36*
X1148080Y1030855D02*
X1145428Y1030506D01*
X1142956Y1029482D01*
X1140834Y1027854D01*
X1139205Y1025731D01*
X1138182Y1023260D01*
X1137832Y1020608D01*
X1138182Y1017955D01*
X1139205Y1015484D01*
X1140834Y1013361D01*
X1142956Y1011733D01*
X1145428Y1010709D01*
X1148080Y1010360D01*
X1150732Y1010709D01*
X1153204Y1011733D01*
X1155326Y1013361D01*
X1156955Y1015484D01*
X1157979Y1017955D01*
X1158328Y1020608D01*
X1157979Y1023260D01*
X1156955Y1025731D01*
X1155326Y1027854D01*
X1153204Y1029482D01*
X1150732Y1030506D01*
X1148080Y1030855D01*
D02*
G37*
G36*
X1122680Y1091926D02*
X1120028Y1091577D01*
X1117556Y1090554D01*
X1115434Y1088925D01*
X1113805Y1086803D01*
X1112782Y1084331D01*
X1112432Y1081679D01*
X1112782Y1079026D01*
X1113713Y1076777D01*
Y1025509D01*
X1112782Y1023260D01*
X1112432Y1020608D01*
X1112782Y1017955D01*
X1113805Y1015484D01*
X1115434Y1013361D01*
X1117556Y1011733D01*
X1120028Y1010709D01*
X1122680Y1010360D01*
X1125332Y1010709D01*
X1127804Y1011733D01*
X1129926Y1013361D01*
X1131555Y1015484D01*
X1132579Y1017955D01*
X1132928Y1020608D01*
X1132579Y1023260D01*
X1131647Y1025509D01*
Y1076777D01*
X1132579Y1079026D01*
X1132928Y1081679D01*
X1132579Y1084331D01*
X1131555Y1086803D01*
X1129926Y1088925D01*
X1127804Y1090554D01*
X1125332Y1091577D01*
X1122680Y1091926D01*
D02*
G37*
G36*
X1097280Y1030855D02*
X1094628Y1030506D01*
X1092156Y1029482D01*
X1090034Y1027854D01*
X1088405Y1025731D01*
X1087382Y1023260D01*
X1087032Y1020608D01*
X1087382Y1017955D01*
X1088405Y1015484D01*
X1090034Y1013361D01*
X1092156Y1011733D01*
X1094628Y1010709D01*
X1097280Y1010360D01*
X1099932Y1010709D01*
X1102404Y1011733D01*
X1104526Y1013361D01*
X1106155Y1015484D01*
X1107178Y1017955D01*
X1107528Y1020608D01*
X1107178Y1023260D01*
X1106155Y1025731D01*
X1104526Y1027854D01*
X1102404Y1029482D01*
X1099932Y1030506D01*
X1097280Y1030855D01*
D02*
G37*
G36*
X1071880D02*
X1069228Y1030506D01*
X1066756Y1029482D01*
X1064634Y1027854D01*
X1063005Y1025731D01*
X1061982Y1023260D01*
X1061632Y1020608D01*
X1061982Y1017955D01*
X1063005Y1015484D01*
X1064634Y1013361D01*
X1066756Y1011733D01*
X1069228Y1010709D01*
X1071880Y1010360D01*
X1074532Y1010709D01*
X1077004Y1011733D01*
X1079126Y1013361D01*
X1080755Y1015484D01*
X1081778Y1017955D01*
X1082128Y1020608D01*
X1081778Y1023260D01*
X1080755Y1025731D01*
X1079126Y1027854D01*
X1077004Y1029482D01*
X1074532Y1030506D01*
X1071880Y1030855D01*
D02*
G37*
G36*
X1046480D02*
X1043828Y1030506D01*
X1041356Y1029482D01*
X1039234Y1027854D01*
X1037605Y1025731D01*
X1036581Y1023260D01*
X1036232Y1020608D01*
X1036581Y1017955D01*
X1037605Y1015484D01*
X1039234Y1013361D01*
X1041356Y1011733D01*
X1043828Y1010709D01*
X1046480Y1010360D01*
X1049132Y1010709D01*
X1051604Y1011733D01*
X1053726Y1013361D01*
X1055355Y1015484D01*
X1056378Y1017955D01*
X1056728Y1020608D01*
X1056378Y1023260D01*
X1055355Y1025731D01*
X1053726Y1027854D01*
X1051604Y1029482D01*
X1049132Y1030506D01*
X1046480Y1030855D01*
D02*
G37*
G36*
X1021080D02*
X1018428Y1030506D01*
X1015956Y1029482D01*
X1013834Y1027854D01*
X1012205Y1025731D01*
X1011181Y1023260D01*
X1010832Y1020608D01*
X1011181Y1017955D01*
X1012205Y1015484D01*
X1013834Y1013361D01*
X1015956Y1011733D01*
X1018428Y1010709D01*
X1021080Y1010360D01*
X1023732Y1010709D01*
X1026204Y1011733D01*
X1028326Y1013361D01*
X1029955Y1015484D01*
X1030978Y1017955D01*
X1031328Y1020608D01*
X1030978Y1023260D01*
X1029955Y1025731D01*
X1028326Y1027854D01*
X1026204Y1029482D01*
X1023732Y1030506D01*
X1021080Y1030855D01*
D02*
G37*
G36*
X944880D02*
X942228Y1030506D01*
X939756Y1029482D01*
X937634Y1027854D01*
X936005Y1025731D01*
X934982Y1023260D01*
X934632Y1020608D01*
X934982Y1017955D01*
X936005Y1015484D01*
X937634Y1013361D01*
X939756Y1011733D01*
X942228Y1010709D01*
X944880Y1010360D01*
X947532Y1010709D01*
X950004Y1011733D01*
X952126Y1013361D01*
X953755Y1015484D01*
X954779Y1017955D01*
X955128Y1020608D01*
X954779Y1023260D01*
X953755Y1025731D01*
X952126Y1027854D01*
X950004Y1029482D01*
X947532Y1030506D01*
X944880Y1030855D01*
D02*
G37*
G36*
X919480D02*
X916828Y1030506D01*
X914356Y1029482D01*
X912234Y1027854D01*
X910605Y1025731D01*
X909582Y1023260D01*
X909232Y1020608D01*
X909582Y1017955D01*
X910605Y1015484D01*
X912234Y1013361D01*
X914356Y1011733D01*
X916828Y1010709D01*
X919480Y1010360D01*
X922132Y1010709D01*
X924604Y1011733D01*
X926726Y1013361D01*
X928355Y1015484D01*
X929379Y1017955D01*
X929728Y1020608D01*
X929379Y1023260D01*
X928355Y1025731D01*
X926726Y1027854D01*
X924604Y1029482D01*
X922132Y1030506D01*
X919480Y1030855D01*
D02*
G37*
G36*
X894080D02*
X891428Y1030506D01*
X888956Y1029482D01*
X886834Y1027854D01*
X885205Y1025731D01*
X884182Y1023260D01*
X883832Y1020608D01*
X884182Y1017955D01*
X885205Y1015484D01*
X886834Y1013361D01*
X888956Y1011733D01*
X891428Y1010709D01*
X894080Y1010360D01*
X896732Y1010709D01*
X899204Y1011733D01*
X901326Y1013361D01*
X902955Y1015484D01*
X903979Y1017955D01*
X904328Y1020608D01*
X903979Y1023260D01*
X902955Y1025731D01*
X901326Y1027854D01*
X899204Y1029482D01*
X896732Y1030506D01*
X894080Y1030855D01*
D02*
G37*
G36*
X868680D02*
X866028Y1030506D01*
X863556Y1029482D01*
X861434Y1027854D01*
X859805Y1025731D01*
X858782Y1023260D01*
X858432Y1020608D01*
X858782Y1017955D01*
X859805Y1015484D01*
X861434Y1013361D01*
X863556Y1011733D01*
X866028Y1010709D01*
X868680Y1010360D01*
X871332Y1010709D01*
X873804Y1011733D01*
X875926Y1013361D01*
X877555Y1015484D01*
X878578Y1017955D01*
X878928Y1020608D01*
X878578Y1023260D01*
X877555Y1025731D01*
X875926Y1027854D01*
X873804Y1029482D01*
X871332Y1030506D01*
X868680Y1030855D01*
D02*
G37*
G36*
X843280Y1145946D02*
X840628Y1145597D01*
X838156Y1144573D01*
X836034Y1142945D01*
X834405Y1140822D01*
X833382Y1138351D01*
X833032Y1135698D01*
X833382Y1133046D01*
X834313Y1130797D01*
Y1025509D01*
X833382Y1023260D01*
X833032Y1020608D01*
X833382Y1017955D01*
X834405Y1015484D01*
X836034Y1013361D01*
X838156Y1011733D01*
X840628Y1010709D01*
X843280Y1010360D01*
X845932Y1010709D01*
X848404Y1011733D01*
X850526Y1013361D01*
X852155Y1015484D01*
X853178Y1017955D01*
X853528Y1020608D01*
X853178Y1023260D01*
X852247Y1025509D01*
Y1130797D01*
X853178Y1133046D01*
X853528Y1135698D01*
X853178Y1138351D01*
X852155Y1140822D01*
X850526Y1142945D01*
X848404Y1144573D01*
X845932Y1145597D01*
X843280Y1145946D01*
D02*
G37*
G36*
X817880D02*
X815228Y1145597D01*
X812756Y1144573D01*
X810634Y1142945D01*
X809005Y1140822D01*
X807981Y1138351D01*
X807632Y1135698D01*
X807981Y1133046D01*
X808913Y1130797D01*
Y1025509D01*
X807981Y1023260D01*
X807632Y1020608D01*
X807981Y1017955D01*
X809005Y1015484D01*
X810634Y1013361D01*
X812756Y1011733D01*
X815228Y1010709D01*
X817880Y1010360D01*
X820532Y1010709D01*
X823004Y1011733D01*
X825126Y1013361D01*
X826755Y1015484D01*
X827778Y1017955D01*
X828128Y1020608D01*
X827778Y1023260D01*
X826847Y1025509D01*
Y1130797D01*
X827778Y1133046D01*
X828128Y1135698D01*
X827778Y1138351D01*
X826755Y1140822D01*
X825126Y1142945D01*
X823004Y1144573D01*
X820532Y1145597D01*
X817880Y1145946D01*
D02*
G37*
G36*
X609888Y1152647D02*
X607236Y1152298D01*
X604764Y1151274D01*
X602642Y1149646D01*
X601013Y1147523D01*
X600568Y1146447D01*
X587040Y1132920D01*
X568963D01*
X566642Y1132614D01*
X564480Y1131718D01*
X562623Y1130294D01*
X552460Y1120130D01*
X551035Y1118273D01*
X550139Y1116111D01*
X549833Y1113790D01*
Y1087024D01*
X525446Y1062637D01*
X523196Y1061705D01*
X521074Y1060076D01*
X519445Y1057954D01*
X518422Y1055482D01*
X518072Y1052830D01*
X518422Y1050178D01*
X519353Y1047928D01*
Y1002030D01*
X519659Y999709D01*
X520555Y997547D01*
X521980Y995690D01*
X557540Y960130D01*
X559397Y958705D01*
X561559Y957809D01*
X563880Y957503D01*
X599618D01*
X601868Y956572D01*
X604520Y956222D01*
X607172Y956572D01*
X609644Y957595D01*
X611766Y959224D01*
X613395Y961346D01*
X614418Y963818D01*
X614768Y966470D01*
X614418Y969122D01*
X613395Y971594D01*
X611766Y973716D01*
X609644Y975345D01*
X607172Y976368D01*
X604520Y976718D01*
X601868Y976368D01*
X599618Y975437D01*
X567594D01*
X537287Y1005744D01*
Y1047928D01*
X538127Y1049956D01*
X565140Y1076970D01*
X566565Y1078827D01*
X567461Y1080989D01*
X567767Y1083310D01*
Y1110076D01*
X572677Y1114986D01*
X590754D01*
X593075Y1115292D01*
X595238Y1116188D01*
X597095Y1117613D01*
X611899Y1132417D01*
X612540Y1132501D01*
X615012Y1133525D01*
X617134Y1135153D01*
X618763Y1137276D01*
X619786Y1139747D01*
X620136Y1142400D01*
X619786Y1145052D01*
X618763Y1147523D01*
X617134Y1149646D01*
X615012Y1151274D01*
X612540Y1152298D01*
X609888Y1152647D01*
D02*
G37*
G36*
X1097280Y953858D02*
X1094628Y953509D01*
X1092156Y952485D01*
X1090034Y950856D01*
X1088405Y948734D01*
X1087382Y946262D01*
X1087032Y943610D01*
X1087382Y940958D01*
X1088405Y938486D01*
X1090034Y936364D01*
X1092156Y934735D01*
X1094628Y933711D01*
X1097280Y933362D01*
X1099932Y933711D01*
X1102404Y934735D01*
X1104526Y936364D01*
X1106155Y938486D01*
X1107178Y940958D01*
X1107528Y943610D01*
X1107178Y946262D01*
X1106155Y948734D01*
X1104526Y950856D01*
X1102404Y952485D01*
X1099932Y953509D01*
X1097280Y953858D01*
D02*
G37*
G36*
X796290Y1054177D02*
X793969Y1053871D01*
X791807Y1052975D01*
X789950Y1051550D01*
X789949Y1051550D01*
X772170Y1033770D01*
X770745Y1031913D01*
X769849Y1029751D01*
X769543Y1027430D01*
Y1018540D01*
X769849Y1016219D01*
X770745Y1014057D01*
X772170Y1012200D01*
X774027Y1010775D01*
X776189Y1009879D01*
X777345Y1009727D01*
X777261Y1008457D01*
X736600D01*
X734279Y1008151D01*
X732117Y1007255D01*
X730260Y1005830D01*
X717560Y993130D01*
X716135Y991273D01*
X715239Y989111D01*
X714933Y986790D01*
Y827944D01*
X677006Y790017D01*
X655142D01*
X652892Y790948D01*
X650240Y791298D01*
X647588Y790948D01*
X645116Y789925D01*
X642994Y788296D01*
X641365Y786174D01*
X640341Y783702D01*
X639992Y781050D01*
X640341Y778398D01*
X641365Y775926D01*
X642994Y773804D01*
X645116Y772175D01*
X647588Y771152D01*
X650240Y770802D01*
X652892Y771152D01*
X655142Y772083D01*
X680720D01*
X683041Y772389D01*
X685203Y773285D01*
X687060Y774710D01*
X730240Y817890D01*
X731665Y819747D01*
X732561Y821909D01*
X732867Y824230D01*
Y983076D01*
X740314Y990523D01*
X901796D01*
X935427Y956892D01*
Y947339D01*
X934982Y946262D01*
X934632Y943610D01*
X934982Y940958D01*
X936005Y938486D01*
X937634Y936364D01*
X939756Y934735D01*
X942228Y933711D01*
X944880Y933362D01*
X947532Y933711D01*
X950004Y934735D01*
X952126Y936364D01*
X953755Y938486D01*
X954779Y940958D01*
X955128Y943610D01*
X954779Y946262D01*
X953755Y948734D01*
X953361Y949247D01*
Y960606D01*
X953055Y962927D01*
X952159Y965089D01*
X950734Y966946D01*
X911850Y1005830D01*
X909993Y1007255D01*
X907831Y1008151D01*
X905510Y1008457D01*
X779759D01*
X779675Y1009727D01*
X780831Y1009879D01*
X782993Y1010775D01*
X784850Y1012200D01*
X786275Y1014057D01*
X787171Y1016219D01*
X787477Y1018540D01*
Y1023716D01*
X802630Y1038869D01*
X802630Y1038870D01*
X804055Y1040727D01*
X804951Y1042889D01*
X805257Y1045210D01*
X804951Y1047531D01*
X804055Y1049693D01*
X802630Y1051550D01*
X800773Y1052975D01*
X798611Y1053871D01*
X796290Y1054177D01*
D02*
G37*
G36*
X859790Y988137D02*
X758190D01*
X755869Y987831D01*
X753707Y986935D01*
X753090Y986462D01*
X751167Y985665D01*
X749310Y984240D01*
X747885Y982383D01*
X746989Y980221D01*
X746683Y977900D01*
X746989Y975579D01*
X747885Y973417D01*
X749310Y971560D01*
X751167Y970135D01*
X753329Y969239D01*
X755650Y968933D01*
X757971Y969239D01*
X760133Y970135D01*
X760223Y970203D01*
X773404D01*
X773737Y968933D01*
X772170Y967730D01*
X770745Y965873D01*
X769849Y963711D01*
X769543Y961390D01*
X769849Y959069D01*
X770745Y956907D01*
X772170Y955050D01*
X774027Y953625D01*
X776189Y952729D01*
X778510Y952423D01*
X810701D01*
X811109Y951221D01*
X810634Y950856D01*
X809005Y948734D01*
X808073Y946484D01*
X795116Y933527D01*
X759460D01*
X757139Y933221D01*
X754977Y932325D01*
X753120Y930900D01*
X751695Y929043D01*
X750799Y926881D01*
X750493Y924560D01*
X750799Y922239D01*
X751695Y920077D01*
X753120Y918220D01*
X754977Y916795D01*
X757139Y915899D01*
X759460Y915593D01*
X798830D01*
X801151Y915899D01*
X803313Y916795D01*
X805170Y918220D01*
X820754Y933803D01*
X823004Y934735D01*
X825126Y936364D01*
X826755Y938486D01*
X827778Y940958D01*
X828128Y943610D01*
X827778Y946262D01*
X826755Y948734D01*
X825126Y950856D01*
X824651Y951221D01*
X825060Y952423D01*
X833827D01*
Y947339D01*
X833382Y946262D01*
X833032Y943610D01*
X833382Y940958D01*
X834405Y938486D01*
X836034Y936364D01*
X838156Y934735D01*
X840628Y933711D01*
X843280Y933362D01*
X845932Y933711D01*
X848404Y934735D01*
X850526Y936364D01*
X852155Y938486D01*
X853178Y940958D01*
X853528Y943610D01*
X853178Y946262D01*
X852155Y948734D01*
X851761Y949247D01*
Y958066D01*
X851455Y960387D01*
X850559Y962549D01*
X849134Y964406D01*
X845810Y967730D01*
X844243Y968933D01*
X844576Y970203D01*
X856076D01*
X859713Y966566D01*
Y948512D01*
X858782Y946262D01*
X858432Y943610D01*
X858782Y940958D01*
X859805Y938486D01*
X861434Y936364D01*
X863556Y934735D01*
X866028Y933711D01*
X868680Y933362D01*
X871332Y933711D01*
X873804Y934735D01*
X875926Y936364D01*
X877555Y938486D01*
X878578Y940958D01*
X878928Y943610D01*
X878578Y946262D01*
X877647Y948512D01*
Y970280D01*
X877341Y972601D01*
X876445Y974763D01*
X875020Y976620D01*
X866130Y985510D01*
X864273Y986935D01*
X862111Y987831D01*
X859790Y988137D01*
D02*
G37*
G36*
X789940Y1095725D02*
X778149D01*
X775828Y1095420D01*
X773665Y1094524D01*
X771808Y1093099D01*
X721026Y1042317D01*
X718776Y1041385D01*
X716654Y1039756D01*
X715025Y1037634D01*
X714093Y1035384D01*
X693430Y1014720D01*
X692005Y1012863D01*
X691109Y1010701D01*
X690803Y1008380D01*
Y995584D01*
X683270Y988050D01*
X681845Y986193D01*
X680949Y984031D01*
X680643Y981710D01*
Y937260D01*
X680949Y934939D01*
X681845Y932777D01*
X683270Y930920D01*
X694700Y919490D01*
X696557Y918065D01*
X698719Y917169D01*
X701040Y916863D01*
X703361Y917169D01*
X705523Y918065D01*
X707380Y919490D01*
X708805Y921347D01*
X709701Y923509D01*
X710007Y925830D01*
X709701Y928151D01*
X708805Y930313D01*
X707380Y932170D01*
X698577Y940974D01*
Y977996D01*
X706110Y985530D01*
X707535Y987387D01*
X708431Y989549D01*
X708737Y991870D01*
Y1004666D01*
X726774Y1022703D01*
X729024Y1023635D01*
X731146Y1025264D01*
X732775Y1027386D01*
X733707Y1029636D01*
X781863Y1077792D01*
X789940D01*
X792261Y1078098D01*
X794423Y1078993D01*
X796280Y1080418D01*
X797705Y1082275D01*
X798601Y1084438D01*
X798907Y1086759D01*
X798601Y1089080D01*
X797705Y1091242D01*
X796280Y1093099D01*
X794423Y1094524D01*
X792261Y1095420D01*
X789940Y1095725D01*
D02*
G37*
G36*
X919480Y953858D02*
X916828Y953509D01*
X914356Y952485D01*
X912234Y950856D01*
X910605Y948734D01*
X909582Y946262D01*
X909232Y943610D01*
X909582Y940958D01*
X910513Y938708D01*
Y909224D01*
X899256Y897967D01*
X891746D01*
X891413Y899237D01*
X892981Y900440D01*
X900420Y907879D01*
X901845Y909736D01*
X902741Y911899D01*
X903047Y914220D01*
Y938708D01*
X903979Y940958D01*
X904328Y943610D01*
X903979Y946262D01*
X902955Y948734D01*
X901326Y950856D01*
X899204Y952485D01*
X896732Y953509D01*
X894080Y953858D01*
X891428Y953509D01*
X888956Y952485D01*
X886834Y950856D01*
X885205Y948734D01*
X884182Y946262D01*
X883832Y943610D01*
X884182Y940958D01*
X885113Y938708D01*
Y917934D01*
X882926Y915747D01*
X834390D01*
X832069Y915441D01*
X829907Y914545D01*
X828050Y913120D01*
X812810Y897880D01*
X811385Y896023D01*
X810489Y893861D01*
X810183Y891540D01*
Y868502D01*
X809251Y866252D01*
X808902Y863600D01*
X809251Y860948D01*
X810275Y858476D01*
X811904Y856354D01*
X814026Y854725D01*
X816498Y853701D01*
X819150Y853352D01*
X821802Y853701D01*
X824274Y854725D01*
X826396Y856354D01*
X828025Y858476D01*
X829048Y860948D01*
X829398Y863600D01*
X829048Y866252D01*
X828117Y868502D01*
Y887826D01*
X838104Y897813D01*
X847370D01*
X847703Y896543D01*
X846135Y895340D01*
X838696Y887901D01*
X837271Y886044D01*
X836375Y883881D01*
X836069Y881561D01*
Y869237D01*
X835675Y868724D01*
X834651Y866252D01*
X834302Y863600D01*
X834651Y860948D01*
X835675Y858476D01*
X837304Y856354D01*
X839426Y854725D01*
X841898Y853701D01*
X844550Y853352D01*
X847202Y853701D01*
X849674Y854725D01*
X851796Y856354D01*
X853425Y858476D01*
X854448Y860948D01*
X854798Y863600D01*
X854448Y866252D01*
X854003Y867329D01*
Y877846D01*
X856190Y880033D01*
X902970D01*
X905291Y880339D01*
X907453Y881235D01*
X909310Y882660D01*
X925820Y899170D01*
X927245Y901027D01*
X928141Y903189D01*
X928447Y905510D01*
Y938708D01*
X929379Y940958D01*
X929728Y943610D01*
X929379Y946262D01*
X928355Y948734D01*
X926726Y950856D01*
X924604Y952485D01*
X922132Y953509D01*
X919480Y953858D01*
D02*
G37*
G36*
X1071880D02*
X1069228Y953509D01*
X1066756Y952485D01*
X1064634Y950856D01*
X1063005Y948734D01*
X1061982Y946262D01*
X1061632Y943610D01*
X1061982Y940958D01*
X1063005Y938486D01*
X1063399Y937973D01*
Y921534D01*
X1063705Y919213D01*
X1064601Y917051D01*
X1066026Y915194D01*
X1073169Y908050D01*
X1071890Y906770D01*
X1070465Y904913D01*
X1069569Y902751D01*
X1069263Y900430D01*
X1069569Y898109D01*
X1070465Y895947D01*
X1071890Y894090D01*
X1073747Y892665D01*
X1075909Y891769D01*
X1078230Y891463D01*
X1079500Y891630D01*
X1080770Y891463D01*
X1083091Y891769D01*
X1085253Y892665D01*
X1087110Y894090D01*
X1088535Y895947D01*
X1089431Y898109D01*
X1089559Y899078D01*
X1092190Y901710D01*
X1093615Y903567D01*
X1094511Y905729D01*
X1094817Y908050D01*
X1094511Y910371D01*
X1093615Y912533D01*
X1092190Y914390D01*
X1081333Y925248D01*
Y939881D01*
X1081778Y940958D01*
X1082128Y943610D01*
X1081778Y946262D01*
X1080755Y948734D01*
X1079126Y950856D01*
X1077004Y952485D01*
X1074532Y953509D01*
X1071880Y953858D01*
D02*
G37*
G36*
X970280D02*
X967628Y953509D01*
X965156Y952485D01*
X963034Y950856D01*
X961405Y948734D01*
X960381Y946262D01*
X960032Y943610D01*
X960381Y940958D01*
X961313Y938708D01*
Y927004D01*
X906876Y872567D01*
X900252D01*
X898002Y873499D01*
X895350Y873848D01*
X892698Y873499D01*
X890226Y872475D01*
X888104Y870846D01*
X886475Y868724D01*
X885452Y866252D01*
X885102Y863600D01*
X885452Y860948D01*
X886383Y858698D01*
Y806354D01*
X857260Y777230D01*
X855835Y775373D01*
X854939Y773211D01*
X854633Y770890D01*
Y754284D01*
X795116Y694767D01*
X698404D01*
X660047Y733124D01*
X659115Y735374D01*
X657486Y737496D01*
X655364Y739125D01*
X652892Y740148D01*
X650240Y740498D01*
X647588Y740148D01*
X645338Y739217D01*
X627284D01*
X618567Y747934D01*
Y787400D01*
X618567Y787400D01*
X618261Y789721D01*
X617365Y791883D01*
X615940Y793740D01*
X557607Y852074D01*
Y870046D01*
X563870Y876310D01*
X565295Y878167D01*
X566191Y880329D01*
X566497Y882650D01*
Y892810D01*
X566191Y895131D01*
X565295Y897293D01*
X563870Y899150D01*
X562013Y900575D01*
X559851Y901471D01*
X557530Y901777D01*
X555209Y901471D01*
X553047Y900575D01*
X551190Y899150D01*
X549765Y897293D01*
X548869Y895131D01*
X548563Y892810D01*
Y886364D01*
X544926Y882727D01*
X514254D01*
X490297Y906684D01*
Y933668D01*
X491228Y935918D01*
X491578Y938570D01*
X491408Y939862D01*
X491567Y941070D01*
X491261Y943391D01*
X490365Y945553D01*
X488940Y947410D01*
X487083Y948835D01*
X484921Y949731D01*
X482600Y950037D01*
X480279Y949731D01*
X478117Y948835D01*
X476420Y947533D01*
X476206Y947445D01*
X474084Y945816D01*
X472455Y943694D01*
X471432Y941222D01*
X471082Y938570D01*
X471432Y935918D01*
X472363Y933668D01*
Y902970D01*
X472669Y900649D01*
X473565Y898487D01*
X474990Y896630D01*
X504200Y867420D01*
X506057Y865995D01*
X508219Y865099D01*
X510540Y864793D01*
X510540Y864793D01*
X539673D01*
Y848360D01*
X539979Y846039D01*
X540875Y843877D01*
X542248Y842087D01*
X542205Y841827D01*
X541706Y840817D01*
X451942D01*
X449692Y841749D01*
X447040Y842098D01*
X444388Y841749D01*
X441916Y840725D01*
X439794Y839096D01*
X438165Y836974D01*
X437141Y834502D01*
X436792Y831850D01*
X437141Y829198D01*
X438165Y826726D01*
X439794Y824604D01*
X441916Y822975D01*
X444388Y821952D01*
X447040Y821602D01*
X449692Y821952D01*
X451942Y822883D01*
X538576D01*
X584123Y777336D01*
Y694690D01*
X584429Y692369D01*
X585325Y690207D01*
X586750Y688350D01*
X622223Y652876D01*
Y631012D01*
X621292Y628762D01*
X620942Y626110D01*
X621292Y623458D01*
X622315Y620986D01*
X623944Y618864D01*
X626066Y617235D01*
X628538Y616212D01*
X631190Y615862D01*
X633842Y616212D01*
X636314Y617235D01*
X638436Y618864D01*
X640065Y620986D01*
X641088Y623458D01*
X641438Y626110D01*
X641088Y628762D01*
X640157Y631012D01*
Y656590D01*
X639851Y658911D01*
X638955Y661073D01*
X637530Y662930D01*
X602057Y698404D01*
Y737361D01*
X603057Y737792D01*
X603327Y737812D01*
X617230Y723910D01*
X619087Y722485D01*
X621249Y721589D01*
X623570Y721283D01*
X645338D01*
X647366Y720443D01*
X688350Y679460D01*
X690207Y678035D01*
X692369Y677139D01*
X694690Y676833D01*
X798830D01*
X801151Y677139D01*
X803313Y678035D01*
X805170Y679460D01*
X869940Y744230D01*
X871365Y746087D01*
X872261Y748249D01*
X872567Y750570D01*
X872567Y750570D01*
Y767176D01*
X885210Y779819D01*
X886383Y779333D01*
Y706120D01*
X886689Y703799D01*
X887585Y701637D01*
X889010Y699780D01*
X933460Y655330D01*
X935317Y653905D01*
X937479Y653009D01*
X939800Y652703D01*
X1111428D01*
X1113678Y651771D01*
X1116330Y651422D01*
X1118982Y651771D01*
X1121454Y652795D01*
X1123576Y654424D01*
X1125205Y656546D01*
X1126228Y659018D01*
X1126578Y661670D01*
X1126228Y664322D01*
X1125205Y666794D01*
X1123576Y668916D01*
X1121454Y670545D01*
X1118982Y671569D01*
X1116330Y671918D01*
X1113678Y671569D01*
X1111428Y670637D01*
X943514D01*
X904317Y709834D01*
Y802640D01*
Y854633D01*
X910590D01*
X912911Y854939D01*
X915073Y855835D01*
X916930Y857260D01*
X976620Y916950D01*
X978045Y918807D01*
X978941Y920969D01*
X979247Y923290D01*
Y938708D01*
X980179Y940958D01*
X980528Y943610D01*
X980179Y946262D01*
X979155Y948734D01*
X977526Y950856D01*
X975404Y952485D01*
X972932Y953509D01*
X970280Y953858D01*
D02*
G37*
G36*
X869950Y873848D02*
X867298Y873499D01*
X864826Y872475D01*
X862704Y870846D01*
X861075Y868724D01*
X860051Y866252D01*
X859702Y863600D01*
X860051Y860948D01*
X861075Y858476D01*
X862704Y856354D01*
X864826Y854725D01*
X867298Y853701D01*
X869950Y853352D01*
X872602Y853701D01*
X875074Y854725D01*
X877196Y856354D01*
X878825Y858476D01*
X879848Y860948D01*
X880198Y863600D01*
X879848Y866252D01*
X878825Y868724D01*
X877196Y870846D01*
X875074Y872475D01*
X872602Y873499D01*
X869950Y873848D01*
D02*
G37*
G36*
X1046480Y953858D02*
X1043828Y953509D01*
X1041356Y952485D01*
X1039234Y950856D01*
X1037605Y948734D01*
X1036581Y946262D01*
X1036232Y943610D01*
X1036581Y940958D01*
X1037513Y938708D01*
Y906780D01*
X1037819Y904459D01*
X1038715Y902297D01*
X1040140Y900440D01*
X1050213Y890366D01*
Y868502D01*
X1049281Y866252D01*
X1048932Y863600D01*
X1049281Y860948D01*
X1050305Y858476D01*
X1051934Y856354D01*
X1054056Y854725D01*
X1055293Y854213D01*
Y794842D01*
X1054361Y792592D01*
X1054012Y789940D01*
X1054361Y787288D01*
X1055385Y784816D01*
X1057014Y782694D01*
X1059136Y781065D01*
X1061608Y780042D01*
X1064260Y779692D01*
X1066912Y780042D01*
X1069384Y781065D01*
X1071506Y782694D01*
X1073135Y784816D01*
X1074158Y787288D01*
X1074508Y789940D01*
X1074158Y792592D01*
X1073227Y794842D01*
Y857833D01*
X1072921Y860153D01*
X1072025Y862316D01*
X1070600Y864173D01*
X1069212Y865238D01*
X1069079Y866252D01*
X1068147Y868502D01*
Y894080D01*
X1067841Y896401D01*
X1066945Y898563D01*
X1065520Y900420D01*
X1055447Y910494D01*
Y938708D01*
X1056378Y940958D01*
X1056728Y943610D01*
X1056378Y946262D01*
X1055355Y948734D01*
X1053726Y950856D01*
X1051604Y952485D01*
X1049132Y953509D01*
X1046480Y953858D01*
D02*
G37*
G36*
X781050Y909397D02*
X778729Y909091D01*
X776567Y908195D01*
X774710Y906770D01*
X751850Y883910D01*
X750425Y882053D01*
X749529Y879891D01*
X749223Y877570D01*
Y811254D01*
X747036Y809067D01*
X731520D01*
X729199Y808761D01*
X727037Y807865D01*
X725180Y806440D01*
X683356Y764617D01*
X655142D01*
X652892Y765548D01*
X650240Y765898D01*
X647588Y765548D01*
X645116Y764525D01*
X642994Y762896D01*
X641365Y760774D01*
X640341Y758302D01*
X639992Y755650D01*
X640341Y752998D01*
X641365Y750526D01*
X642994Y748404D01*
X645116Y746775D01*
X647588Y745751D01*
X650240Y745402D01*
X652892Y745751D01*
X655142Y746683D01*
X687070D01*
X689391Y746989D01*
X691553Y747885D01*
X693410Y749310D01*
X735234Y791133D01*
X750751D01*
X753071Y791439D01*
X755234Y792335D01*
X757091Y793760D01*
X764530Y801199D01*
X765955Y803056D01*
X766851Y805219D01*
X767157Y807540D01*
Y873856D01*
X787390Y894090D01*
X788815Y895947D01*
X789711Y898109D01*
X790017Y900430D01*
X789711Y902751D01*
X788815Y904913D01*
X787390Y906770D01*
X785533Y908195D01*
X783371Y909091D01*
X781050Y909397D01*
D02*
G37*
G36*
X1122680Y953858D02*
X1120028Y953509D01*
X1117556Y952485D01*
X1115434Y950856D01*
X1113805Y948734D01*
X1112782Y946262D01*
X1112432Y943610D01*
X1112782Y940958D01*
X1113713Y938708D01*
Y888904D01*
X1113016Y888206D01*
X1111591Y886349D01*
X1110695Y884187D01*
X1110389Y881866D01*
Y864157D01*
X1109995Y863644D01*
X1109063Y861394D01*
X1090940Y843270D01*
X1089515Y841413D01*
X1088619Y839251D01*
X1088313Y836930D01*
Y798469D01*
X1088619Y796148D01*
X1089515Y793986D01*
X1090940Y792128D01*
X1117701Y765367D01*
X1117108Y764164D01*
X1116330Y764267D01*
X1113678Y763917D01*
X1111206Y762894D01*
X1109084Y761265D01*
X1107455Y759143D01*
X1106432Y756671D01*
X1106082Y754019D01*
X1106432Y751367D01*
X1107455Y748895D01*
X1109084Y746773D01*
X1111206Y745144D01*
X1113678Y744120D01*
X1116330Y743771D01*
X1118982Y744120D01*
X1121454Y745144D01*
X1123576Y746773D01*
X1125205Y748895D01*
X1126228Y751367D01*
X1126578Y754019D01*
X1126475Y754797D01*
X1127678Y755390D01*
X1131923Y751144D01*
X1132855Y748895D01*
X1134484Y746773D01*
X1136606Y745144D01*
X1139078Y744120D01*
X1141730Y743771D01*
X1144382Y744120D01*
X1146854Y745144D01*
X1148976Y746773D01*
X1150605Y748895D01*
X1151628Y751367D01*
X1151978Y754019D01*
X1151628Y756671D01*
X1150605Y759143D01*
X1148976Y761265D01*
X1146854Y762894D01*
X1144604Y763825D01*
X1106247Y802183D01*
Y833216D01*
X1121744Y848713D01*
X1123994Y849645D01*
X1126116Y851274D01*
X1127745Y853396D01*
X1128768Y855868D01*
X1129118Y858520D01*
X1128768Y861172D01*
X1128323Y862249D01*
Y878152D01*
X1129020Y878850D01*
X1130445Y880707D01*
X1131341Y882869D01*
X1131647Y885190D01*
Y938708D01*
X1132579Y940958D01*
X1132928Y943610D01*
X1132579Y946262D01*
X1131555Y948734D01*
X1129926Y950856D01*
X1127804Y952485D01*
X1125332Y953509D01*
X1122680Y953858D01*
D02*
G37*
G36*
X793750Y873848D02*
X791098Y873499D01*
X788626Y872475D01*
X786504Y870846D01*
X784875Y868724D01*
X783851Y866252D01*
X783502Y863600D01*
X783851Y860948D01*
X784783Y858698D01*
Y793654D01*
X736515Y745386D01*
X699770D01*
X697449Y745081D01*
X695287Y744185D01*
X693430Y742760D01*
X692005Y740903D01*
X691109Y738740D01*
X690803Y736420D01*
X691109Y734099D01*
X692005Y731936D01*
X693430Y730079D01*
X695287Y728654D01*
X697449Y727758D01*
X699770Y727453D01*
X740229D01*
X742550Y727758D01*
X744713Y728654D01*
X746570Y730079D01*
X800090Y783600D01*
X801515Y785457D01*
X802411Y787619D01*
X802717Y789940D01*
Y858698D01*
X803649Y860948D01*
X803998Y863600D01*
X803649Y866252D01*
X802625Y868724D01*
X800996Y870846D01*
X798874Y872475D01*
X796402Y873499D01*
X793750Y873848D01*
D02*
G37*
G36*
X447040Y740498D02*
X444388Y740148D01*
X441916Y739125D01*
X439794Y737496D01*
X438165Y735374D01*
X437141Y732902D01*
X436792Y730250D01*
X437141Y727598D01*
X438165Y725126D01*
X439794Y723004D01*
X441916Y721375D01*
X444388Y720351D01*
X447040Y720002D01*
X449692Y720351D01*
X452164Y721375D01*
X454286Y723004D01*
X455915Y725126D01*
X456939Y727598D01*
X457288Y730250D01*
X456939Y732902D01*
X455915Y735374D01*
X454286Y737496D01*
X452164Y739125D01*
X449692Y740148D01*
X447040Y740498D01*
D02*
G37*
G36*
Y715098D02*
X444388Y714749D01*
X441916Y713725D01*
X439794Y712096D01*
X438165Y709974D01*
X437141Y707502D01*
X436792Y704850D01*
X437141Y702198D01*
X438165Y699726D01*
X439794Y697604D01*
X441916Y695975D01*
X444388Y694951D01*
X447040Y694602D01*
X449692Y694951D01*
X452164Y695975D01*
X454286Y697604D01*
X455915Y699726D01*
X456939Y702198D01*
X457288Y704850D01*
X456939Y707502D01*
X455915Y709974D01*
X454286Y712096D01*
X452164Y713725D01*
X449692Y714749D01*
X447040Y715098D01*
D02*
G37*
G36*
X1148080Y953858D02*
X1145428Y953509D01*
X1142956Y952485D01*
X1140834Y950856D01*
X1139205Y948734D01*
X1138182Y946262D01*
X1137832Y943610D01*
X1138182Y940958D01*
X1139113Y938708D01*
Y894080D01*
X1139419Y891759D01*
X1140315Y889597D01*
X1141740Y887740D01*
X1148003Y881476D01*
Y863422D01*
X1147072Y861172D01*
X1146722Y858520D01*
X1147072Y855868D01*
X1148095Y853396D01*
X1149724Y851274D01*
X1151846Y849645D01*
X1154096Y848713D01*
X1187119Y815690D01*
Y719740D01*
X1138856Y671477D01*
X1136606Y670545D01*
X1134484Y668916D01*
X1132855Y666794D01*
X1131832Y664322D01*
X1131482Y661670D01*
X1131832Y659018D01*
X1132855Y656546D01*
X1134484Y654424D01*
X1136606Y652795D01*
X1139078Y651771D01*
X1141730Y651422D01*
X1144382Y651771D01*
X1146854Y652795D01*
X1148976Y654424D01*
X1150605Y656546D01*
X1151537Y658796D01*
X1202426Y709686D01*
X1203851Y711543D01*
X1204747Y713705D01*
X1205053Y716026D01*
Y819404D01*
X1204747Y821725D01*
X1203851Y823887D01*
X1202426Y825744D01*
X1166777Y861394D01*
X1165937Y863422D01*
Y885190D01*
X1165631Y887511D01*
X1164735Y889673D01*
X1163310Y891530D01*
X1157047Y897794D01*
Y938708D01*
X1157979Y940958D01*
X1158328Y943610D01*
X1157979Y946262D01*
X1156955Y948734D01*
X1155326Y950856D01*
X1153204Y952485D01*
X1150732Y953509D01*
X1148080Y953858D01*
D02*
G37*
G36*
X895350Y655408D02*
X892698Y655059D01*
X890226Y654035D01*
X888104Y652406D01*
X886475Y650284D01*
X885452Y647812D01*
X885102Y645160D01*
X885452Y642508D01*
X886475Y640036D01*
X888104Y637914D01*
X890226Y636285D01*
X892698Y635261D01*
X895350Y634912D01*
X898002Y635261D01*
X900474Y636285D01*
X902596Y637914D01*
X904225Y640036D01*
X905248Y642508D01*
X905598Y645160D01*
X905248Y647812D01*
X904225Y650284D01*
X902596Y652406D01*
X900474Y654035D01*
X898002Y655059D01*
X895350Y655408D01*
D02*
G37*
G36*
X869950D02*
X867298Y655059D01*
X864826Y654035D01*
X862704Y652406D01*
X861075Y650284D01*
X860051Y647812D01*
X859702Y645160D01*
X860051Y642508D01*
X861075Y640036D01*
X862704Y637914D01*
X864826Y636285D01*
X867298Y635261D01*
X869950Y634912D01*
X872602Y635261D01*
X875074Y636285D01*
X877196Y637914D01*
X878825Y640036D01*
X879848Y642508D01*
X880198Y645160D01*
X879848Y647812D01*
X878825Y650284D01*
X877196Y652406D01*
X875074Y654035D01*
X872602Y655059D01*
X869950Y655408D01*
D02*
G37*
G36*
X844550D02*
X841898Y655059D01*
X839426Y654035D01*
X837304Y652406D01*
X835675Y650284D01*
X834651Y647812D01*
X834302Y645160D01*
X834651Y642508D01*
X835675Y640036D01*
X837304Y637914D01*
X839426Y636285D01*
X841898Y635261D01*
X844550Y634912D01*
X847202Y635261D01*
X849674Y636285D01*
X851796Y637914D01*
X853425Y640036D01*
X854448Y642508D01*
X854798Y645160D01*
X854448Y647812D01*
X853425Y650284D01*
X851796Y652406D01*
X849674Y654035D01*
X847202Y655059D01*
X844550Y655408D01*
D02*
G37*
G36*
X819150D02*
X816498Y655059D01*
X814026Y654035D01*
X811904Y652406D01*
X810275Y650284D01*
X809251Y647812D01*
X808902Y645160D01*
X809251Y642508D01*
X810275Y640036D01*
X811904Y637914D01*
X814026Y636285D01*
X816498Y635261D01*
X819150Y634912D01*
X821802Y635261D01*
X824274Y636285D01*
X826396Y637914D01*
X828025Y640036D01*
X829048Y642508D01*
X829398Y645160D01*
X829048Y647812D01*
X828025Y650284D01*
X826396Y652406D01*
X824274Y654035D01*
X821802Y655059D01*
X819150Y655408D01*
D02*
G37*
G36*
X793750D02*
X791098Y655059D01*
X788626Y654035D01*
X786504Y652406D01*
X784875Y650284D01*
X783851Y647812D01*
X783502Y645160D01*
X783851Y642508D01*
X784875Y640036D01*
X786504Y637914D01*
X788626Y636285D01*
X791098Y635261D01*
X793750Y634912D01*
X796402Y635261D01*
X798874Y636285D01*
X800996Y637914D01*
X802625Y640036D01*
X803649Y642508D01*
X803998Y645160D01*
X803649Y647812D01*
X802625Y650284D01*
X800996Y652406D01*
X798874Y654035D01*
X796402Y655059D01*
X793750Y655408D01*
D02*
G37*
G36*
X768350D02*
X765698Y655059D01*
X763226Y654035D01*
X761104Y652406D01*
X759475Y650284D01*
X758452Y647812D01*
X758102Y645160D01*
X758452Y642508D01*
X759475Y640036D01*
X761104Y637914D01*
X763226Y636285D01*
X765698Y635261D01*
X768350Y634912D01*
X771002Y635261D01*
X773474Y636285D01*
X775596Y637914D01*
X777225Y640036D01*
X778249Y642508D01*
X778598Y645160D01*
X778249Y647812D01*
X777225Y650284D01*
X775596Y652406D01*
X773474Y654035D01*
X771002Y655059D01*
X768350Y655408D01*
D02*
G37*
G36*
X447040Y816698D02*
X444388Y816348D01*
X441916Y815325D01*
X439794Y813696D01*
X438165Y811574D01*
X437141Y809102D01*
X436792Y806450D01*
X437141Y803798D01*
X438165Y801326D01*
X439794Y799204D01*
X441916Y797575D01*
X444388Y796552D01*
X447040Y796202D01*
X449692Y796552D01*
X451942Y797483D01*
X532226D01*
X561263Y768446D01*
Y688340D01*
X561569Y686019D01*
X562465Y683857D01*
X563890Y682000D01*
X596823Y649066D01*
Y631012D01*
X595891Y628762D01*
X595542Y626110D01*
X595891Y623458D01*
X596915Y620986D01*
X598544Y618864D01*
X600666Y617235D01*
X603138Y616212D01*
X605790Y615862D01*
X608442Y616212D01*
X610914Y617235D01*
X613036Y618864D01*
X614665Y620986D01*
X615689Y623458D01*
X616038Y626110D01*
X615689Y628762D01*
X614757Y631012D01*
Y652780D01*
X614451Y655101D01*
X613555Y657263D01*
X612130Y659120D01*
X579197Y692054D01*
Y772160D01*
X578891Y774481D01*
X577995Y776643D01*
X576570Y778500D01*
X542280Y812790D01*
X540423Y814215D01*
X538261Y815111D01*
X535940Y815417D01*
X451942D01*
X449692Y816348D01*
X447040Y816698D01*
D02*
G37*
G36*
Y791298D02*
X444388Y790948D01*
X441916Y789925D01*
X439794Y788296D01*
X438165Y786174D01*
X437141Y783702D01*
X436792Y781050D01*
X437141Y778398D01*
X438165Y775926D01*
X439794Y773804D01*
X441916Y772175D01*
X444388Y771152D01*
X447040Y770802D01*
X449692Y771152D01*
X451942Y772083D01*
X516986D01*
X539673Y749396D01*
Y676910D01*
X539979Y674589D01*
X540875Y672427D01*
X542300Y670570D01*
X570937Y641932D01*
Y629839D01*
X570491Y628762D01*
X570142Y626110D01*
X570491Y623458D01*
X571515Y620986D01*
X573144Y618864D01*
X575266Y617235D01*
X577738Y616212D01*
X580390Y615862D01*
X583042Y616212D01*
X585514Y617235D01*
X587636Y618864D01*
X589265Y620986D01*
X590289Y623458D01*
X590638Y626110D01*
X590289Y628762D01*
X589265Y631234D01*
X588871Y631747D01*
Y645646D01*
X588565Y647967D01*
X587669Y650129D01*
X586244Y651986D01*
X557607Y680624D01*
Y753110D01*
X557301Y755431D01*
X556405Y757593D01*
X554980Y759450D01*
X527040Y787390D01*
X525183Y788815D01*
X523021Y789711D01*
X520700Y790017D01*
X451942D01*
X449692Y790948D01*
X447040Y791298D01*
D02*
G37*
G36*
Y765898D02*
X444388Y765548D01*
X441916Y764525D01*
X439794Y762896D01*
X438165Y760774D01*
X437141Y758302D01*
X436792Y755650D01*
X437141Y752998D01*
X438165Y750526D01*
X439794Y748404D01*
X441916Y746775D01*
X444388Y745751D01*
X447040Y745402D01*
X449692Y745751D01*
X451942Y746683D01*
X495576D01*
X511733Y730526D01*
Y675640D01*
X512039Y673319D01*
X512935Y671157D01*
X514360Y669300D01*
X545537Y638122D01*
Y629839D01*
X545092Y628762D01*
X544742Y626110D01*
X545092Y623458D01*
X546115Y620986D01*
X547744Y618864D01*
X549866Y617235D01*
X552338Y616212D01*
X554990Y615862D01*
X557642Y616212D01*
X560114Y617235D01*
X562236Y618864D01*
X563865Y620986D01*
X564888Y623458D01*
X565238Y626110D01*
X564888Y628762D01*
X563865Y631234D01*
X563471Y631747D01*
Y641836D01*
X563165Y644157D01*
X562269Y646319D01*
X560844Y648176D01*
X529667Y679354D01*
Y734240D01*
X529361Y736561D01*
X528465Y738724D01*
X527040Y740581D01*
X505631Y761990D01*
X503774Y763415D01*
X501611Y764311D01*
X499291Y764617D01*
X451942D01*
X449692Y765548D01*
X447040Y765898D01*
D02*
G37*
G36*
X1178560Y621116D02*
X1174176Y620771D01*
X1169899Y619745D01*
X1165836Y618062D01*
X1162086Y615764D01*
X1158742Y612908D01*
X1155886Y609563D01*
X1153588Y605814D01*
X1151905Y601751D01*
X1150879Y597474D01*
X1150534Y593090D01*
X1150879Y588706D01*
X1151905Y584429D01*
X1153588Y580366D01*
X1155886Y576617D01*
X1158742Y573272D01*
X1162086Y570416D01*
X1165836Y568118D01*
X1169899Y566435D01*
X1174176Y565409D01*
X1178560Y565064D01*
X1182944Y565409D01*
X1187221Y566435D01*
X1191284Y568118D01*
X1195033Y570416D01*
X1198378Y573272D01*
X1201234Y576617D01*
X1203532Y580366D01*
X1205215Y584429D01*
X1206241Y588706D01*
X1206586Y593090D01*
X1206241Y597474D01*
X1205215Y601751D01*
X1203532Y605814D01*
X1201234Y609563D01*
X1198378Y612908D01*
X1195033Y615764D01*
X1191284Y618062D01*
X1187221Y619745D01*
X1182944Y620771D01*
X1178560Y621116D01*
D02*
G37*
G36*
X430530D02*
X426146Y620771D01*
X421869Y619745D01*
X417806Y618062D01*
X414057Y615764D01*
X410712Y612908D01*
X407856Y609563D01*
X405558Y605814D01*
X403875Y601751D01*
X402849Y597474D01*
X402504Y593090D01*
X402849Y588706D01*
X403875Y584429D01*
X405558Y580366D01*
X407856Y576617D01*
X410712Y573272D01*
X414057Y570416D01*
X417806Y568118D01*
X421869Y566435D01*
X426146Y565409D01*
X430530Y565064D01*
X434914Y565409D01*
X439191Y566435D01*
X443254Y568118D01*
X447004Y570416D01*
X450348Y573272D01*
X453204Y576617D01*
X455502Y580366D01*
X457185Y584429D01*
X458211Y588706D01*
X458556Y593090D01*
X458211Y597474D01*
X457185Y601751D01*
X455502Y605814D01*
X453204Y609563D01*
X450348Y612908D01*
X447004Y615764D01*
X443254Y618062D01*
X439191Y619745D01*
X434914Y620771D01*
X430530Y621116D01*
D02*
G37*
G36*
X1068070Y619748D02*
X685917D01*
Y561340D01*
X1068070D01*
Y619748D01*
D02*
G37*
%LPD*%
G36*
X960405Y1192933D02*
X959686Y1191857D01*
X958613Y1192301D01*
X956292Y1192607D01*
X828040D01*
X825719Y1192301D01*
X823557Y1191405D01*
X821700Y1189980D01*
X811928Y1180209D01*
X811365Y1179975D01*
X809508Y1178550D01*
X786806Y1155849D01*
X786043Y1155585D01*
X785322Y1155538D01*
X782121Y1158738D01*
X780264Y1160163D01*
X778101Y1161059D01*
X775780Y1161365D01*
X670686D01*
X668366Y1161059D01*
X666203Y1160163D01*
X664346Y1158738D01*
X657814Y1152206D01*
X655564Y1151274D01*
X653442Y1149646D01*
X651813Y1147523D01*
X650789Y1145052D01*
X650440Y1142400D01*
X650543Y1141622D01*
X649340Y1141029D01*
X645095Y1145274D01*
X644163Y1147523D01*
X643769Y1148037D01*
Y1157150D01*
X643463Y1159471D01*
X642567Y1161634D01*
X641143Y1163491D01*
X640043Y1164590D01*
X670447Y1194993D01*
X958345D01*
X960405Y1192933D01*
D02*
G37*
G36*
X759233Y1142161D02*
X758205Y1140822D01*
X757273Y1138573D01*
X753460Y1134759D01*
X669233D01*
X668606Y1136029D01*
X669563Y1137276D01*
X670495Y1139525D01*
X674401Y1143431D01*
X758606D01*
X759233Y1142161D01*
D02*
G37*
G36*
X782673Y1132824D02*
X783027Y1131970D01*
Y1117677D01*
X763287D01*
X762856Y1118947D01*
X763514Y1119452D01*
X769954Y1125892D01*
X772204Y1126824D01*
X774326Y1128452D01*
X775955Y1130575D01*
X776979Y1133046D01*
X777328Y1135698D01*
X777225Y1136476D01*
X778428Y1137069D01*
X782673Y1132824D01*
D02*
G37*
D10*
X935990Y1118870D02*
X939314Y1115546D01*
Y1093956D02*
Y1115546D01*
Y1093956D02*
X939800Y1093470D01*
X888820Y1118870D02*
Y1138992D01*
X906780Y1156952D01*
Y1157639D01*
X931694Y1143784D02*
Y1157154D01*
X914400Y1126490D02*
X931694Y1143784D01*
X914400Y1079500D02*
Y1126490D01*
X980440Y1065530D02*
Y1115060D01*
X957580Y1137920D02*
X980440Y1115060D01*
X957580Y1137920D02*
Y1157639D01*
X960120Y1045210D02*
X980440Y1065530D01*
X866140Y1045210D02*
X960120D01*
X740229Y736420D02*
X793750Y789940D01*
Y863600D01*
X699770Y736420D02*
X740229D01*
X650240Y859790D02*
Y880110D01*
Y806450D02*
Y859790D01*
X684530D01*
X699770Y844550D01*
X798830Y685800D02*
X863600Y750570D01*
X694690Y685800D02*
X798830D01*
X650240Y730250D02*
X694690Y685800D01*
X863600Y750570D02*
Y770890D01*
X548640Y873760D02*
X557530Y882650D01*
Y892810D01*
X481330Y902970D02*
X510540Y873760D01*
X481330Y902970D02*
Y938570D01*
X548640Y848360D02*
Y873760D01*
Y848360D02*
X609600Y787400D01*
Y744220D02*
Y787400D01*
Y744220D02*
X623570Y730250D01*
X650240D01*
X778510Y1027430D02*
X796290Y1045210D01*
X778510Y1018540D02*
Y1027430D01*
X842794Y944096D02*
Y958066D01*
X839470Y961390D02*
X842794Y958066D01*
X778510Y961390D02*
X839470D01*
X842794Y944096D02*
X843280Y943610D01*
X931694Y1157154D02*
X932180Y1157639D01*
X900570Y1065670D02*
X914400Y1079500D01*
X866140Y1065670D02*
X900570D01*
X866140Y1086759D02*
X872365Y1092984D01*
X889784D01*
X890270Y1093470D01*
X787540Y1065670D02*
X791210D01*
X755650Y1033780D02*
X787540Y1065670D01*
X755650Y1029970D02*
Y1033780D01*
X868680Y943610D02*
Y970280D01*
X859790Y979170D02*
X868680Y970280D01*
X758190Y979170D02*
X859790D01*
X699770Y1008380D02*
X778149Y1086759D01*
X789940D01*
X787580Y1108710D02*
X791994Y1113123D01*
X714829Y1108710D02*
X787580D01*
X692150Y1086031D02*
X714829Y1108710D01*
X791994Y1113123D02*
Y1135212D01*
X736600Y999490D02*
X905510D01*
X723900Y986790D02*
X736600Y999490D01*
X723900Y824230D02*
Y986790D01*
X905510Y999490D02*
X944394Y960606D01*
X843280Y1020608D02*
Y1135698D01*
X817880Y1020608D02*
Y1135698D01*
X791994Y1135212D02*
X792480Y1135698D01*
X692150Y1066800D02*
Y1086031D01*
Y1066800D02*
X723900D01*
X557530Y1042670D02*
X581660Y1066800D01*
X624840D01*
X557530Y1023620D02*
Y1042670D01*
X510540Y873760D02*
X548640D01*
X481330Y939800D02*
X482600Y941070D01*
X481330Y938570D02*
Y939800D01*
X651895Y1125792D02*
X665480Y1112208D01*
Y976630D02*
Y1112208D01*
X655320Y966470D02*
X665480Y976630D01*
X655320Y885190D02*
Y966470D01*
X650240Y880110D02*
X655320Y885190D01*
X699770Y991870D02*
Y1008380D01*
X689610Y981710D02*
X699770Y991870D01*
X689610Y937260D02*
Y981710D01*
Y937260D02*
X701040Y925830D01*
X759460Y924560D02*
X798830D01*
X817880Y943610D01*
X995680D02*
Y995208D01*
X970280Y1020608D02*
X995680Y995208D01*
X1004570Y1109726D02*
X1008380Y1113536D01*
Y1157639D01*
X1004570Y1065670D02*
Y1109726D01*
Y1054898D02*
Y1065670D01*
X970280Y1020608D02*
X1004570Y1054898D01*
X650240Y755650D02*
X687070D01*
X731520Y800100D01*
X750751D01*
X758190Y807540D02*
Y877570D01*
X750751Y800100D02*
X758190Y807540D01*
Y877570D02*
X781050Y900430D01*
X1072366Y921534D02*
Y943124D01*
X1078230Y900430D02*
X1085850Y908050D01*
X1072366Y921534D02*
X1085850Y908050D01*
X1071880Y943610D02*
X1072567D01*
X1059180Y863600D02*
Y894080D01*
X1046480Y906780D02*
X1059180Y894080D01*
X1046480Y906780D02*
Y943610D01*
X886640Y906780D02*
X894080Y914220D01*
Y943610D01*
X834390Y906780D02*
X886640D01*
X819150Y891540D02*
X834390Y906780D01*
X819150Y863600D02*
Y891540D01*
X902970Y889000D02*
X919480Y905510D01*
Y943610D01*
X852476Y889000D02*
X902970D01*
X845036Y881561D02*
X852476Y889000D01*
X845036Y864086D02*
Y881561D01*
X844550Y863600D02*
X845036Y864086D01*
X944394Y944096D02*
Y960606D01*
Y944096D02*
X944880Y943610D01*
X680720Y781050D02*
X723900Y824230D01*
X650240Y781050D02*
X680720D01*
X895350Y706120D02*
Y802640D01*
Y863600D01*
X863600Y770890D02*
X895350Y802640D01*
X1071394Y944096D02*
X1071880Y943610D01*
X828040Y1183640D02*
X956292D01*
X816610Y1172210D02*
X828040Y1183640D01*
X815848Y1172210D02*
X816610D01*
X956292Y1183640D02*
X982293Y1157639D01*
X962059Y1203960D02*
X1008380Y1157639D01*
X666733Y1203960D02*
X962059D01*
X627363Y1164590D02*
X666733Y1203960D01*
X982293Y1157639D02*
X982980D01*
X792966Y1149328D02*
X815848Y1172210D01*
X792966Y1136184D02*
Y1149328D01*
X792480Y1135698D02*
X792966Y1136184D01*
X970280Y923290D02*
Y943610D01*
X910590Y863600D02*
X970280Y923290D01*
X895350Y863600D02*
X910590D01*
X979170Y895530D02*
X995680Y912040D01*
Y943610D01*
X979170Y750570D02*
Y895530D01*
Y750570D02*
X988844Y740896D01*
X1007894D01*
X1008380Y740410D01*
X1097280Y836930D02*
X1118870Y858520D01*
X1097280Y798469D02*
Y836930D01*
Y798469D02*
X1141730Y754019D01*
X1156970Y824230D02*
X1170940Y810260D01*
Y730250D02*
Y810260D01*
X1154430Y713740D02*
X1170940Y730250D01*
X1074420Y713740D02*
X1154430D01*
X1064260Y723900D02*
X1074420Y713740D01*
X1064260Y723900D02*
Y740410D01*
X558800Y1113790D02*
X568963Y1123953D01*
X590754D01*
X609201Y1142400D01*
X609888D01*
X558800Y1083310D02*
Y1113790D01*
X528320Y1052830D02*
X558800Y1083310D01*
X528320Y1002030D02*
Y1052830D01*
Y1002030D02*
X563880Y966470D01*
X604520D01*
X482600Y1117600D02*
X501650Y1136650D01*
X482600Y1073150D02*
Y1117600D01*
Y1073150D02*
X502920Y1052830D01*
X501650Y1135963D02*
Y1136650D01*
X609402Y1141914D02*
X609888Y1142400D01*
X895350Y706120D02*
X939800Y661670D01*
X462190Y1155610D02*
X471170Y1164590D01*
X462190Y1148677D02*
Y1155610D01*
X450850Y1137337D02*
X462190Y1148677D01*
X450850Y1136650D02*
Y1137337D01*
X471170Y1164590D02*
X627363D01*
X634802Y1157150D01*
Y1142886D02*
Y1157150D01*
Y1142886D02*
X635288Y1142400D01*
X450850Y1019850D02*
X481330Y989370D01*
X450850Y1019850D02*
Y1136650D01*
X447040Y831850D02*
X542290D01*
X593090Y781050D01*
Y694690D02*
Y781050D01*
Y694690D02*
X631190Y656590D01*
Y626110D02*
Y656590D01*
X1122680Y1020608D02*
Y1081679D01*
X1009650Y899160D02*
X1021080Y910590D01*
Y943610D01*
X1009650Y863600D02*
Y899160D01*
Y862913D02*
Y863600D01*
X1008380Y861643D02*
X1009650Y862913D01*
X1008380Y789940D02*
Y861643D01*
X1064260Y789940D02*
Y857833D01*
X1119356Y881866D02*
X1122680Y885190D01*
Y943610D01*
X1119356Y859006D02*
Y881866D01*
X1118870Y858520D02*
X1119356Y859006D01*
X1148080Y894080D02*
X1156970Y885190D01*
X1148080Y894080D02*
Y943610D01*
X1156970Y858520D02*
Y885190D01*
X499291Y755650D02*
X520700Y734240D01*
X447040Y755650D02*
X499291D01*
X520700Y675640D02*
Y734240D01*
Y675640D02*
X554504Y641836D01*
Y626596D02*
Y641836D01*
Y626596D02*
X554990Y626110D01*
X520700Y781050D02*
X548640Y753110D01*
X447040Y781050D02*
X520700D01*
X548640Y676910D02*
Y753110D01*
Y676910D02*
X579904Y645646D01*
Y626596D02*
Y645646D01*
Y626596D02*
X580390Y626110D01*
X447040Y806450D02*
X535940D01*
X570230Y772160D01*
Y688340D02*
Y772160D01*
Y688340D02*
X605790Y652780D01*
Y626110D02*
Y652780D01*
X939800Y661670D02*
X1116330D01*
X1156970Y858520D02*
X1196086Y819404D01*
Y716026D02*
Y819404D01*
X1141730Y661670D02*
X1196086Y716026D01*
X635288Y1142400D02*
X651895Y1125792D01*
X757174D01*
X767080Y1135698D01*
X1008380Y740410D02*
X1064260D01*
X1118870Y824230D02*
X1156970D01*
X775780Y1152398D02*
X792480Y1135698D01*
X670686Y1152398D02*
X775780D01*
X660688Y1142400D02*
X670686Y1152398D01*
X1038860Y1065670D02*
X1054869Y1081679D01*
X1097280D01*
D11*
X1032518Y603240D02*
X1038866Y609588D01*
X1051562D01*
X1057910Y603240D01*
Y596892D01*
X1051562Y590544D01*
X1038866D01*
X1032518Y584196D01*
Y577848D01*
X1038866Y571500D01*
X1051562D01*
X1057910Y577848D01*
X994430Y603240D02*
X1000779Y609588D01*
X1013474D01*
X1019822Y603240D01*
Y577848D01*
X1013474Y571500D01*
X1000779D01*
X994430Y577848D01*
X981735Y609588D02*
X956343D01*
X969039D01*
Y571500D01*
X943647D02*
X918255Y596892D01*
X905559Y571500D02*
X892863D01*
X899211D01*
Y609588D01*
X905559Y603240D01*
X873820Y577848D02*
X867472Y571500D01*
X854776D01*
X848428Y577848D01*
Y603240D01*
X854776Y609588D01*
X867472D01*
X873820Y603240D01*
Y596892D01*
X867472Y590544D01*
X848428D01*
X835732Y571500D02*
X810340Y596892D01*
X778600Y571500D02*
Y609588D01*
X797644Y590544D01*
X772252D01*
X759557Y609588D02*
X734165D01*
Y603240D01*
X759557Y577848D01*
Y571500D01*
D12*
X1008380Y1157639D02*
D03*
X982980D02*
D03*
X957580D02*
D03*
X932180D02*
D03*
X906780D02*
D03*
X501650Y1136650D02*
D03*
X450850D02*
D03*
X447040Y831850D02*
D03*
Y806450D02*
D03*
Y781050D02*
D03*
Y755650D02*
D03*
Y730250D02*
D03*
Y704850D02*
D03*
X650240Y806450D02*
D03*
Y781050D02*
D03*
Y755650D02*
D03*
Y730250D02*
D03*
X1116330Y754019D02*
D03*
X1141730D02*
D03*
X1059180Y863600D02*
D03*
X1009650D02*
D03*
X660688Y1142400D02*
D03*
X635288D02*
D03*
X609888D02*
D03*
X528320Y1052830D02*
D03*
X502920D02*
D03*
X631190Y626110D02*
D03*
X605790D02*
D03*
X580390D02*
D03*
X554990D02*
D03*
X481330Y989370D02*
D03*
Y938570D02*
D03*
X655320Y966470D02*
D03*
X604520D02*
D03*
X895350Y645160D02*
D03*
X869950D02*
D03*
X844550D02*
D03*
X819150D02*
D03*
X793750D02*
D03*
X768350D02*
D03*
X793750Y863600D02*
D03*
X819150D02*
D03*
X844550D02*
D03*
X869950D02*
D03*
X895350D02*
D03*
X843280Y1135698D02*
D03*
X817880D02*
D03*
X792480D02*
D03*
X767080D02*
D03*
X723900Y1032510D02*
D03*
Y1066800D02*
D03*
X817880Y1020608D02*
D03*
X843280D02*
D03*
X868680D02*
D03*
X894080D02*
D03*
X919480D02*
D03*
X944880D02*
D03*
X970280D02*
D03*
X995680D02*
D03*
X1021080D02*
D03*
X1046480D02*
D03*
X1071880D02*
D03*
X1097280D02*
D03*
X1122680D02*
D03*
X1148080D02*
D03*
Y943610D02*
D03*
X1122680D02*
D03*
X1097280D02*
D03*
X1071880D02*
D03*
X1046480D02*
D03*
X1021080D02*
D03*
X995680D02*
D03*
X970280D02*
D03*
X944880D02*
D03*
X919480D02*
D03*
X894080D02*
D03*
X868680D02*
D03*
X843280D02*
D03*
X817880D02*
D03*
X1008380Y740410D02*
D03*
Y789940D02*
D03*
X1097280Y1081679D02*
D03*
X1122680D02*
D03*
X1064260Y740410D02*
D03*
Y789940D02*
D03*
X1004570Y1065670D02*
D03*
X1038860D02*
D03*
X1118870Y824230D02*
D03*
Y858520D02*
D03*
X1156970D02*
D03*
Y824230D02*
D03*
X1116330Y661670D02*
D03*
X1141730D02*
D03*
X939800Y1093470D02*
D03*
X890270D02*
D03*
D13*
X430530Y1201420D02*
D03*
Y593090D02*
D03*
X1178560D02*
D03*
Y1201420D02*
D03*
D14*
X935990Y1118870D02*
D03*
X888820D02*
D03*
X699770Y736420D02*
D03*
Y844550D02*
D03*
X778510Y961390D02*
D03*
Y1018540D02*
D03*
X796290Y1045210D02*
D03*
X866140D02*
D03*
X755650Y1029970D02*
D03*
Y977900D02*
D03*
X791210Y1065670D02*
D03*
X866140D02*
D03*
X789940Y1086759D02*
D03*
X866140D02*
D03*
X624840Y1066800D02*
D03*
X692150D02*
D03*
X557530Y892810D02*
D03*
Y1023620D02*
D03*
X701040Y925830D02*
D03*
X759460Y924560D02*
D03*
X1080770Y900430D02*
D03*
X781050D02*
D03*
M02*
