G04*
G04 #@! TF.GenerationSoftware,Altium Limited,Altium Designer,19.0.15 (446)*
G04*
G04 Layer_Color=255*
%FSLAX44Y44*%
%MOMM*%
G71*
G01*
G75*
%ADD21C,1.5240*%
D21*
X501650Y1136650D02*
D03*
X450850D02*
D03*
X447040Y831850D02*
D03*
Y806450D02*
D03*
Y781050D02*
D03*
Y755650D02*
D03*
Y730250D02*
D03*
Y704850D02*
D03*
X650240Y806450D02*
D03*
Y781050D02*
D03*
Y755650D02*
D03*
Y730250D02*
D03*
X1116330Y754019D02*
D03*
X1141730D02*
D03*
X1059180Y863600D02*
D03*
X1009650D02*
D03*
X660688Y1142400D02*
D03*
X635288D02*
D03*
X609888D02*
D03*
X528320Y1052830D02*
D03*
X502920D02*
D03*
X631190Y626110D02*
D03*
X605790D02*
D03*
X580390D02*
D03*
X554990D02*
D03*
X481330Y989370D02*
D03*
Y938570D02*
D03*
X655320Y966470D02*
D03*
X604520D02*
D03*
X895350Y645160D02*
D03*
X869950D02*
D03*
X844550D02*
D03*
X819150D02*
D03*
X793750D02*
D03*
X768350D02*
D03*
X793750Y863600D02*
D03*
X819150D02*
D03*
X844550D02*
D03*
X869950D02*
D03*
X895350D02*
D03*
X843280Y1135698D02*
D03*
X817880D02*
D03*
X792480D02*
D03*
X767080D02*
D03*
X723900Y1032510D02*
D03*
Y1066800D02*
D03*
X817880Y1020608D02*
D03*
X843280D02*
D03*
X868680D02*
D03*
X894080D02*
D03*
X919480D02*
D03*
X944880D02*
D03*
X970280D02*
D03*
X995680D02*
D03*
X1021080D02*
D03*
X1046480D02*
D03*
X1071880D02*
D03*
X1097280D02*
D03*
X1122680D02*
D03*
X1148080D02*
D03*
Y943610D02*
D03*
X1122680D02*
D03*
X1097280D02*
D03*
X1071880D02*
D03*
X1046480D02*
D03*
X1021080D02*
D03*
X995680D02*
D03*
X970280D02*
D03*
X944880D02*
D03*
X919480D02*
D03*
X894080D02*
D03*
X868680D02*
D03*
X843280D02*
D03*
X817880D02*
D03*
X1008380Y740410D02*
D03*
Y789940D02*
D03*
X1097280Y1081679D02*
D03*
X1122680D02*
D03*
X1064260Y740410D02*
D03*
Y789940D02*
D03*
X1004570Y1065670D02*
D03*
X1038860D02*
D03*
X1118870Y824230D02*
D03*
Y858520D02*
D03*
X1156970D02*
D03*
Y824230D02*
D03*
X1116330Y661670D02*
D03*
X1141730D02*
D03*
X939800Y1093470D02*
D03*
X890270D02*
D03*
X1008380Y1157639D02*
D03*
X982980D02*
D03*
X957580D02*
D03*
X932180D02*
D03*
X906780D02*
D03*
M02*
